<svg width="22" height="23" viewBox="0 0 22 23" fill="none" xmlns="http://www.w3.org/2000/svg">
<path d="M19.4572 16.6L18.2001 17.8572M18.2001 15.3429L17.0573 16.4857M17.0573 14.0857L15.8002 15.2286M15.9144 12.7143L14.6573 13.9714M14.7716 11.4571L13.5144 12.7143M13.5144 10.2L12.2573 11.3429M12.3716 8.94288L11.1145 10.0857M11.2287 7.57144L9.97161 8.82859M10.0859 6.31429L8.82875 7.45714L7.5715 8.71429M8.82875 5.05717L7.5715 6.20003M7.6859 3.80002L6.42864 4.94288M6.54304 2.42858L5.28578 3.68573M15.9144 15.2286L14.6573 16.3715M12.3716 11.3429L11.1145 12.4857M5.28578 3.57144L4.02867 4.82859M0.714355 4.71429L4.94301 0.714294L21.0573 18.4286L16.8288 22.4286L0.714355 4.71429Z" stroke="#0F172C" stroke-width="1.0344" stroke-miterlimit="10" stroke-linecap="round" stroke-linejoin="round"/>
</svg>
