<svg width="40" height="40" viewBox="0 0 40 40" fill="none" xmlns="http://www.w3.org/2000/svg">
<g filter="url(#filter0_f)">
<ellipse cx="20" cy="36.5" rx="5" ry="1.5" fill="#00005A" fill-opacity="0.15"/>
</g>
<path d="M30 17.0001C30 11.0001 25.6667 6.66675 20 6.66675C14.3333 6.66675 10 11.0001 10 17.0001C10 20.8334 13.1667 26.0001 20 32.1667C26.6667 26.0001 30 20.8334 30 17.0001Z" fill="white"/>
<path d="M30.0001 17C30.0001 11 25.6667 6.66671 20.0001 6.66671C14.3334 6.66671 10.0001 11 10.0001 17C10.0001 20.8334 13.1667 26 20.0001 32.1667C26.6667 26 30.0001 20.8334 30.0001 17ZM20.0001 3.33337C27.0001 3.33337 33.3334 8.66671 33.3334 17C33.3334 22.5 28.8334 29.1667 20.0001 36.6667C11.1667 29.1667 6.66675 22.5 6.66675 17C6.66675 8.66671 13.0001 3.33337 20.0001 3.33337Z" fill="#C4C4C4"/>
<path d="M26 17H14V20H26V17Z" fill="#C4C4C4"/>
<defs>
<filter id="filter0_f" x="11" y="31" width="18" height="11" filterUnits="userSpaceOnUse" color-interpolation-filters="sRGB">
<feFlood flood-opacity="0" result="BackgroundImageFix"/>
<feBlend mode="normal" in="SourceGraphic" in2="BackgroundImageFix" result="shape"/>
<feGaussianBlur stdDeviation="2" result="effect1_foregroundBlur"/>
</filter>
</defs>
</svg>
