<svg width="24" height="24" viewBox="0 0 24 24" fill="none" xmlns="http://www.w3.org/2000/svg">
<path fill-rule="evenodd" clip-rule="evenodd" d="M19.5379 17.2789C21.0608 16.0139 22.2617 14.3735 23 12.5C21.27 8.11 17 5 12 5C10.5831 5 9.2249 5.24973 7.96646 5.70755L10.1234 7.86451C10.703 7.62947 11.3365 7.5 12 7.5C14.76 7.5 17 9.74 17 12.5C17 13.1635 16.8705 13.797 16.6355 14.3765L19.5379 17.2789ZM18.0651 18.3238L15.6536 15.9123C14.7408 16.8891 13.4413 17.5 12 17.5C9.24 17.5 7 15.26 7 12.5C7 11.0587 7.61086 9.7592 8.58763 8.84646L6.24024 6.4991C3.87167 7.82635 2.00621 9.94667 1 12.5C2.73 16.89 7 20 12 20C14.218 20 16.2924 19.388 18.0651 18.3238ZM9.93961 10.1984C8.95104 11.3785 9.01161 13.1329 10.1213 14.2426C11.2311 15.3524 12.9855 15.4129 14.1656 14.4243L9.93961 10.1984Z" fill="#A1A2A3"/>
<path d="M22.0965 23C21.9739 23.0004 21.8524 22.9766 21.7391 22.9298C21.6257 22.8831 21.5228 22.8144 21.4361 22.7276L1.29011 2.58162C1.11995 2.40596 1.0256 2.17049 1.02737 1.92593C1.02914 1.68137 1.1269 1.44729 1.29959 1.27411C1.47228 1.10093 1.70608 1.00251 1.95063 1.00005C2.19519 0.997583 2.43092 1.09127 2.60707 1.26094L22.7531 21.407C22.8399 21.4936 22.9089 21.5965 22.9559 21.7098C23.0029 21.8231 23.0271 21.9446 23.0271 22.0673C23.0271 22.19 23.0029 22.3115 22.9559 22.4248C22.9089 22.5381 22.8399 22.641 22.7531 22.7276C22.6674 22.8146 22.5651 22.8835 22.4523 22.9303C22.3396 22.977 22.2186 23.0007 22.0965 23Z" fill="#A1A2A3"/>
</svg>
