<svg width="24" height="24" viewBox="0 0 24 24" fill="none" xmlns="http://www.w3.org/2000/svg">
<path d="M11.5 22C16.7457 22 21 17.7457 21 12.5C21 7.25435 16.7457 3 11.5 3C6.25435 3 2 7.25435 2 12.5C2 17.7457 6.25435 22 11.5 22ZM11.5 8.80326C13.2554 8.80326 14.6804 10.2283 14.6804 11.9837C14.6804 13.7391 13.2554 15.1641 11.5 15.1641C9.74457 15.1641 8.31957 13.7391 8.31957 11.9837C8.31957 10.2283 9.74457 8.80326 11.5 8.80326ZM6.39891 20.0174C6.39891 19.9967 6.41957 19.9761 6.41957 19.9554C7.36957 17.663 9.33152 16.0935 11.5826 16.0935C13.8337 16.0935 15.775 17.663 16.7457 19.9348C15.2587 20.9674 13.4413 21.587 11.5 21.587C9.6 21.587 7.84456 21.0087 6.39891 20.0174Z" fill="#A1A2A3"/>
</svg>
