<svg width="6" height="9" viewBox="0 0 6 9" fill="none" xmlns="http://www.w3.org/2000/svg">
<path d="M0.109647 3.11419C0.179853 3.19007 0.275073 3.2327 0.37436 3.2327L4.86101 3.23219C4.91015 3.23237 4.95885 3.22204 5.00428 3.20179C5.04971 3.18154 5.09099 3.15177 5.12572 3.11419C5.19532 3.03797 5.23434 2.93518 5.23434 2.82809C5.23434 2.721 5.19532 2.61822 5.12572 2.54199L2.8824 0.117393C2.81187 0.0421737 2.71677 0 2.61768 0C2.5186 0 2.4235 0.0421737 2.35297 0.117393L0.109647 2.54199C0.0394414 2.61787 0 2.72078 0 2.82809C0 2.9354 0.0394414 3.03831 0.109647 3.11419Z" fill="#7471FF"/>
<path d="M5.12473 5.88581C5.05452 5.80993 4.9593 5.7673 4.86002 5.7673L0.373366 5.76781C0.324222 5.76763 0.275529 5.77796 0.230097 5.79821C0.184665 5.81846 0.14339 5.84823 0.108654 5.88581C0.0390585 5.96203 3.79283e-05 6.06482 3.79189e-05 6.17191C3.79095e-05 6.279 0.0390584 6.38178 0.108654 6.45801L2.35198 8.88261C2.42251 8.95783 2.51761 9 2.61669 9C2.71578 9 2.81087 8.95783 2.8814 8.88261L5.12473 6.45801C5.19493 6.38213 5.23438 6.27922 5.23438 6.17191C5.23438 6.0646 5.19493 5.96169 5.12473 5.88581Z" fill="#7471FF"/>
</svg>
