<?xml version="1.0" encoding="utf-8"?>
<!-- Generator: Adobe Illustrator 25.2.3, SVG Export Plug-In . SVG Version: 6.00 Build 0)  -->
<svg version="1.1" xmlns="http://www.w3.org/2000/svg" xmlns:xlink="http://www.w3.org/1999/xlink" x="0px" y="0px"
	 viewBox="0 0 300 300" style="enable-background:new 0 0 300 300;" xml:space="preserve">
<style type="text/css">
	.st0{display:none;}
	.st1{display:inline;opacity:0.15;}
	.st2{enable-background:new    ;}
	.st3{fill:#392CFF;stroke:#6548FF;stroke-miterlimit:10;}
	.st4{fill:#6548FF;stroke:#6548FF;stroke-miterlimit:10;}
	.st5{fill:#3D4BFF;stroke:#6548FF;stroke-miterlimit:10;}
	.st6{fill:#4915FF;stroke:#6548FF;stroke-miterlimit:10;}
	.st7{display:inline;fill:none;stroke:#6548FF;stroke-linecap:round;stroke-linejoin:round;stroke-miterlimit:10;}
	.st8{display:inline;fill:none;stroke:#6548FF;stroke-width:0.5;stroke-linecap:round;stroke-linejoin:round;stroke-miterlimit:10;}
	.st9{display:inline;}
	.st10{opacity:0.149;fill:#4915FF;}
	.st11{opacity:0.149;fill:#3D4BFF;}
	.st12{opacity:0.149;fill:#6548FF;}
	.st13{opacity:0.149;fill:#392CFF;}
	.st14{fill:none;stroke:#6548FF;stroke-linecap:round;stroke-linejoin:round;stroke-miterlimit:10;}
	.st15{fill:none;stroke:#6548FF;stroke-width:0.5;stroke-linecap:round;stroke-linejoin:round;stroke-miterlimit:10;}
	.st16{opacity:0.15;}
	.st17{fill:#3D4BFF;}
	.st18{fill:#4915FF;}
	.st19{fill:#6548FF;}
	.st20{fill:#392CFF;}
	.st21{fill:#474747;stroke:#656565;stroke-miterlimit:10;}
	.st22{fill:#656565;stroke:#656565;stroke-miterlimit:10;}
	.st23{fill:#5B5B5B;stroke:#656565;stroke-miterlimit:10;}
	.st24{fill:#3E3E3E;stroke:#656565;stroke-miterlimit:10;}
	.st25{fill:none;stroke:#656565;stroke-linecap:round;stroke-linejoin:round;stroke-miterlimit:10;}
	.st26{fill:none;stroke:#656565;stroke-width:0.5;stroke-linecap:round;stroke-linejoin:round;stroke-miterlimit:10;}
	.st27{opacity:0.149;fill:#3E3E3E;}
	.st28{opacity:0.149;fill:#5B5B5B;}
	.st29{opacity:0.149;fill:#656565;}
	.st30{opacity:0.149;fill:#474747;}
	.st31{fill:#5B5B5B;}
	.st32{fill:#3E3E3E;}
	.st33{fill:#656565;}
	.st34{fill:#474747;}
</style>
<g id="레이어_1" class="st0">
	<g class="st9">
		<g>
			<g class="st2">
				<g>
					<polygon class="st10" points="196.3,117.47 190.61,127.72 96.17,182.61 101.85,172.35 					"/>
				</g>
				<g>
					<polygon class="st12" points="196.42,72.76 196.3,117.47 101.85,172.35 101.98,127.65 					"/>
				</g>
				<g>
					<polygon class="st13" points="190.8,62.51 196.42,72.76 101.98,127.65 96.35,117.39 					"/>
				</g>
				<g>
					<polygon class="st10" points="291.36,172.35 285.67,182.61 150.35,261.24 150.4,254.27 					"/>
				</g>
				<g>
					<polygon class="st11" points="150.4,254.27 150.35,261.24 14.14,182.6 8.51,172.35 					"/>
				</g>
				<g>
					<polygon class="st11" points="150.53,209.56 150.4,254.27 8.51,172.35 8.64,127.64 					"/>
				</g>
				<g>
					<polygon class="st12" points="291.49,127.65 291.36,172.35 150.4,254.27 150.53,209.56 					"/>
				</g>
				<g>
					<polygon class="st12" points="285.86,117.39 150.54,196.03 14.33,117.39 149.65,38.75 190.8,62.51 96.35,117.39 150.26,148.52 
						244.71,93.63 					"/>
				</g>
				<g>
					<polygon class="st11" points="150.54,196.03 150.53,209.56 8.64,127.64 14.33,117.39 					"/>
				</g>
				<g>
					<polygon class="st13" points="285.86,117.39 291.49,127.65 150.53,209.56 150.54,196.03 					"/>
				</g>
			</g>
		</g>
		<polygon class="st14" points="244.71,93.63 192.78,123.81 196.3,117.47 196.3,72.76 190.8,62.51 149.65,38.75 14.33,117.39 
			8.64,127.64 8.51,172.35 14.14,182.6 150.35,261.24 285.67,182.61 291.36,172.35 291.49,127.65 285.86,117.39 		"/>
		<polyline class="st14" points="190.8,62.51 96.35,117.39 150.26,148.52 192.78,123.81 		"/>
		<line class="st15" x1="196.3" y1="72.76" x2="108.03" y2="124.13"/>
		<line class="st15" x1="196.3" y1="117.47" x2="146.55" y2="146.38"/>
		<polyline class="st15" points="14.33,117.39 150.54,196.03 285.86,117.39 		"/>
		<polyline class="st15" points="8.64,127.64 150.53,209.56 291.49,127.65 		"/>
		<polyline class="st15" points="150.54,196.03 150.53,209.56 150.4,254.27 150.35,261.24 		"/>
		<polyline class="st15" points="8.51,172.35 150.4,254.27 291.36,172.35 		"/>
	</g>
</g>
<g id="레이어_2">
	<g>
		<g>
			<g class="st2">
				<g>
					<polygon class="st27" points="196.3,117.47 190.61,127.72 96.17,182.61 101.85,172.35 					"/>
				</g>
				<g>
					<polygon class="st29" points="196.42,72.76 196.3,117.47 101.85,172.35 101.98,127.65 					"/>
				</g>
				<g>
					<polygon class="st30" points="190.8,62.51 196.42,72.76 101.98,127.65 96.35,117.39 					"/>
				</g>
				<g>
					<polygon class="st27" points="291.36,172.35 285.67,182.61 150.35,261.24 150.4,254.27 					"/>
				</g>
				<g>
					<polygon class="st28" points="150.4,254.27 150.35,261.24 14.14,182.6 8.51,172.35 					"/>
				</g>
				<g>
					<polygon class="st28" points="150.53,209.56 150.4,254.27 8.51,172.35 8.64,127.64 					"/>
				</g>
				<g>
					<polygon class="st29" points="291.49,127.65 291.36,172.35 150.4,254.27 150.53,209.56 					"/>
				</g>
				<g>
					<polygon class="st29" points="285.86,117.39 150.54,196.03 14.33,117.39 149.65,38.75 190.8,62.51 96.35,117.39 150.26,148.52 
						244.71,93.63 					"/>
				</g>
				<g>
					<polygon class="st28" points="150.54,196.03 150.53,209.56 8.64,127.64 14.33,117.39 					"/>
				</g>
				<g>
					<polygon class="st30" points="285.86,117.39 291.49,127.65 150.53,209.56 150.54,196.03 					"/>
				</g>
			</g>
		</g>
		<polygon class="st25" points="244.71,93.63 192.78,123.81 196.3,117.47 196.3,72.76 190.8,62.51 149.65,38.75 14.33,117.39 
			8.64,127.64 8.51,172.35 14.14,182.6 150.35,261.24 285.67,182.61 291.36,172.35 291.49,127.65 285.86,117.39 		"/>
		<polyline class="st25" points="190.8,62.51 96.35,117.39 150.26,148.52 192.78,123.81 		"/>
		<line class="st26" x1="196.3" y1="72.76" x2="108.03" y2="124.13"/>
		<line class="st26" x1="196.3" y1="117.47" x2="146.55" y2="146.38"/>
		<polyline class="st26" points="14.33,117.39 150.54,196.03 285.86,117.39 		"/>
		<polyline class="st26" points="8.64,127.64 150.53,209.56 291.49,127.65 		"/>
		<polyline class="st26" points="150.54,196.03 150.53,209.56 150.4,254.27 150.35,261.24 		"/>
		<polyline class="st26" points="8.51,172.35 150.4,254.27 291.36,172.35 		"/>
	</g>
</g>
</svg>
