<?xml version="1.0" encoding="utf-8"?>
<!-- Generator: Adobe Illustrator 24.2.3, SVG Export Plug-In . SVG Version: 6.00 Build 0)  -->
<svg version="1.1" id="레이어_1" xmlns="http://www.w3.org/2000/svg" xmlns:xlink="http://www.w3.org/1999/xlink" x="0px"
	 y="0px" viewBox="0 0 36 36" style="enable-background:new 0 0 36 36;" xml:space="preserve">
<style type="text/css">
	.st0{opacity:0.7;fill-rule:evenodd;clip-rule:evenodd;fill:#FFA9F6;}
	.st1{fill:#696B8C;}
</style>
<path class="st0" d="M30.3,36H5.7C2.5,36,0,33.5,0,30.3V5.7C0,2.5,2.5,0,5.7,0h24.7C33.5,0,36,2.5,36,5.7v24.7
	C36,33.5,33.5,36,30.3,36z"/>
<g>
	<path class="st1" d="M13.7,19c-1.3-0.4-2.3-1.2-2.9-2.2c-0.5,1.2-1.5,2.1-2.9,2.5l-0.6-1c1.8-0.6,2.8-2,2.8-3.4v-0.1H7.7v-1.1h2.5
		v-1.4h1.4v1.4H14v1.1h-2.5v0.1c0,1.3,1.1,2.6,2.9,3.1L13.7,19z M17.1,21.9c0,1.4-1.5,2.2-4,2.2s-4-0.8-4-2.2c0-1.4,1.5-2.2,4-2.2
		S17.1,20.5,17.1,21.9z M15.8,21.9c0-0.7-0.9-1.1-2.6-1.1c-1.7,0-2.6,0.4-2.6,1.1c0,0.7,0.9,1.2,2.6,1.2
		C14.8,23,15.8,22.6,15.8,21.9z M15.7,15.6v-3.3h1.3v7.1h-1.3v-2.8h-2.1v-1.1H15.7z"/>
	<path class="st1" d="M28.6,20H24v4.1h-1.3V20H18v-1.1h10.6L28.6,20z M18.6,17c2.2-0.3,3.9-1.6,4-3H19V13h8.6v1.1h-3.5
		c0.1,1.4,1.7,2.7,4,3l-0.5,1.1c-1.9-0.3-3.5-1.2-4.3-2.5c-0.7,1.3-2.3,2.3-4.2,2.5L18.6,17z"/>
</g>
</svg>
