<?xml version="1.0" encoding="utf-8"?>
<!-- Generator: Adobe Illustrator 24.2.3, SVG Export Plug-In . SVG Version: 6.00 Build 0)  -->
<svg version="1.1" id="레이어_1" xmlns="http://www.w3.org/2000/svg" xmlns:xlink="http://www.w3.org/1999/xlink" x="0px"
	 y="0px" viewBox="0 0 36 36" style="enable-background:new 0 0 36 36;" xml:space="preserve">
<style type="text/css">
	.st0{opacity:0.7;fill-rule:evenodd;clip-rule:evenodd;fill:#FFB4B4;enable-background:new    ;}
	.st1{fill:#696B8C;}
</style>
<path class="st0" d="M30.3,36H5.7C2.5,36,0,33.5,0,30.3V5.7C0,2.5,2.5,0,5.7,0h24.7C33.5,0,36,2.5,36,5.7v24.7
	C36,33.5,33.5,36,30.3,36z"/>
<g>
	<path class="st1" d="M9.1,20.2c1.4,0,2.4-0.1,3.6-0.3l0.1,1.1c-1.4,0.3-2.6,0.3-4.3,0.3H7.7v-7.6h4.3v1.1h-3V20.2z M17.4,12.3v11.7
		h-1.3v-6h-1.4v5.4h-1.3V12.6h1.3V17h1.4v-4.6H17.4z"/>
	<path class="st1" d="M24.3,19.3c-1.3-0.4-2.2-1.4-2.7-2.5c-0.5,1.3-1.5,2.3-2.9,2.8L18,18.5c1.8-0.6,2.9-2.2,2.9-3.8v-0.4h-2.5
		v-1.1h6.3v1.1h-2.4v0.4c0,1.4,1,2.9,2.8,3.5L24.3,19.3z M28,22.8v1.1h-7.9v-3.7h1.3v2.6H28z M26.4,15.5v-3.1h1.3v8.6h-1.3v-4.3
		h-2.1v-1.1H26.4z"/>
</g>
</svg>
