<?xml version="1.0" encoding="utf-8"?>
<!-- Generator: Adobe Illustrator 24.2.3, SVG Export Plug-In . SVG Version: 6.00 Build 0)  -->
<svg version="1.1" id="레이어_1" xmlns="http://www.w3.org/2000/svg" xmlns:xlink="http://www.w3.org/1999/xlink" x="0px"
	 y="0px" viewBox="0 0 36 36" style="enable-background:new 0 0 36 36;" xml:space="preserve">
<style type="text/css">
	.st0{opacity:0.15;fill-rule:evenodd;clip-rule:evenodd;fill:#00005A;}
	.st1{fill:#F3F3F3;}
</style>
<path class="st0" d="M30.3,36H5.7C2.5,36,0,33.5,0,30.3V5.7C0,2.5,2.5,0,5.7,0h24.7C33.5,0,36,2.5,36,5.7v24.7
	C36,33.5,33.5,36,30.3,36z"/>
<g>
	<path class="st1" d="M9.3,20.5c0.9,0,1.8-0.1,2.7-0.2l0.1,0.9c-2.3,0.4-4.8,0.4-6.7,0.4l-0.2-1c0.8,0,1.8,0,2.8,0v-1.1
		c-1.2-0.2-2-0.9-2-2c0-1.2,1.1-2,2.6-2c1.5,0,2.6,0.8,2.6,2c0,1-0.8,1.8-2,2V20.5z M11.9,14.9H5.4v-1H8v-1.2h1.2v1.2h2.6V14.9z
		 M8.6,18.6c0.9,0,1.4-0.4,1.4-1.1c0-0.7-0.6-1.1-1.4-1.1s-1.4,0.4-1.4,1.1C7.2,18.2,7.8,18.6,8.6,18.6z M15.4,18.2h-1.5v5.3h-1.2
		V12.7h1.2v4.5h1.5V18.2z"/>
	<path class="st1" d="M21,18.6c-1.2-0.4-2-1.2-2.5-2.3c-0.5,1.2-1.4,2.1-2.7,2.6l-0.6-1c1.7-0.6,2.7-2.1,2.7-3.6v-1.1h1.2v1
		c0,1.5,0.9,2.9,2.5,3.4L21,18.6z M24.2,21.4c0,1.3-1.4,2.1-3.7,2.1c-2.3,0-3.6-0.8-3.6-2.1c0-1.3,1.4-2.1,3.6-2.1
		C22.8,19.4,24.2,20.1,24.2,21.4z M23,21.4c0-0.7-0.9-1.1-2.4-1.1s-2.4,0.4-2.4,1.1c0,0.7,0.9,1.1,2.4,1.1S23,22.2,23,21.4z
		 M22.9,15.9h-2.2v-1h2.2v-2.2h1.2v6.4h-1.2V15.9z"/>
	<path class="st1" d="M25.5,21.5h1.9v-6.1h-1.6v-0.9c0.8-0.2,1.4-0.4,1.9-0.7h1v7.7h1.7v1.1h-5V21.5z"/>
</g>
</svg>
