<?xml version="1.0" encoding="utf-8"?>
<!-- Generator: Adobe Illustrator 25.2.3, SVG Export Plug-In . SVG Version: 6.00 Build 0)  -->
<svg version="1.1" xmlns="http://www.w3.org/2000/svg" xmlns:xlink="http://www.w3.org/1999/xlink" x="0px" y="0px"
	 viewBox="0 0 300 300" style="enable-background:new 0 0 300 300;" xml:space="preserve">
<style type="text/css">
	.st0{display:none;}
	.st1{display:inline;opacity:0.15;}
	.st2{enable-background:new    ;}
	.st3{fill:#392CFF;stroke:#6548FF;stroke-miterlimit:10;}
	.st4{fill:#6548FF;stroke:#6548FF;stroke-miterlimit:10;}
	.st5{fill:#3D4BFF;stroke:#6548FF;stroke-miterlimit:10;}
	.st6{fill:#4915FF;stroke:#6548FF;stroke-miterlimit:10;}
	.st7{display:inline;fill:none;stroke:#6548FF;stroke-linecap:round;stroke-linejoin:round;stroke-miterlimit:10;}
	.st8{display:inline;fill:none;stroke:#6548FF;stroke-width:0.5;stroke-linecap:round;stroke-linejoin:round;stroke-miterlimit:10;}
	.st9{display:inline;}
	.st10{opacity:0.149;fill:#4915FF;}
	.st11{opacity:0.149;fill:#3D4BFF;}
	.st12{opacity:0.149;fill:#6548FF;}
	.st13{opacity:0.149;fill:#392CFF;}
	.st14{fill:none;stroke:#6548FF;stroke-linecap:round;stroke-linejoin:round;stroke-miterlimit:10;}
	.st15{fill:none;stroke:#6548FF;stroke-width:0.5;stroke-linecap:round;stroke-linejoin:round;stroke-miterlimit:10;}
	.st16{opacity:0.15;}
	.st17{fill:#3D4BFF;}
	.st18{fill:#4915FF;}
	.st19{fill:#6548FF;}
	.st20{fill:#392CFF;}
	.st21{fill:#474747;stroke:#656565;stroke-miterlimit:10;}
	.st22{fill:#656565;stroke:#656565;stroke-miterlimit:10;}
	.st23{fill:#5B5B5B;stroke:#656565;stroke-miterlimit:10;}
	.st24{fill:#3E3E3E;stroke:#656565;stroke-miterlimit:10;}
	.st25{fill:none;stroke:#656565;stroke-linecap:round;stroke-linejoin:round;stroke-miterlimit:10;}
	.st26{fill:none;stroke:#656565;stroke-width:0.5;stroke-linecap:round;stroke-linejoin:round;stroke-miterlimit:10;}
	.st27{opacity:0.149;fill:#3E3E3E;}
	.st28{opacity:0.149;fill:#5B5B5B;}
	.st29{opacity:0.149;fill:#656565;}
	.st30{opacity:0.149;fill:#474747;}
	.st31{fill:#5B5B5B;}
	.st32{fill:#3E3E3E;}
	.st33{fill:#656565;}
	.st34{fill:#474747;}
</style>
<g id="레이어_1" class="st0">
	<g class="st1">
		<g>
			<g class="st2">
				<g>
					<polygon class="st3" points="61.49,110.99 55.84,108.04 102.36,81.01 102.37,87.23 					"/>
				</g>
				<g>
					<polygon class="st4" points="102.37,87.23 102.36,81.01 244.24,162.93 238.57,165.87 					"/>
				</g>
				<g>
					<polygon class="st5" points="197.63,212.77 197.57,233.8 61.37,155.16 61.43,134.13 					"/>
				</g>
				<g>
					<polygon class="st4" points="238.51,189.01 238.45,210.05 197.57,233.8 197.63,212.77 					"/>
				</g>
				<g>
					<polygon class="st6" points="197.7,189.63 197.72,189.96 55.84,108.04 61.49,110.99 					"/>
				</g>
				<g>
					<polygon class="st4" points="244.24,162.93 244.16,191.96 197.64,218.99 197.72,189.96 					"/>
				</g>
				<g>
					<polygon class="st5" points="197.72,189.96 197.64,218.99 55.76,137.07 55.84,108.04 					"/>
				</g>
				<g>
					<polygon class="st5" points="238.57,165.87 244.24,162.93 197.72,189.96 197.7,189.63 					"/>
				</g>
				<g>
					<polygon class="st5" points="197.76,168.59 197.7,189.63 61.49,110.99 61.55,89.95 					"/>
				</g>
				<g>
					<polygon class="st4" points="238.63,144.84 238.57,165.87 197.7,189.63 197.76,168.59 					"/>
				</g>
				<g>
					<polygon class="st4" points="238.63,144.84 197.76,168.59 61.55,89.95 102.43,66.2 					"/>
				</g>
			</g>
		</g>
	</g>
	<polygon class="st7" points="102.43,66.2 61.55,89.95 61.49,104.99 197.7,183.63 238.57,159.87 238.57,144.84 	"/>
	<polyline class="st8" points="61.55,89.95 197.76,168.59 197.7,183.63 	"/>
	<line class="st8" x1="197.76" y1="168.59" x2="238.57" y2="144.84"/>
	<polyline class="st7" points="238.63,159.69 244.24,162.93 244.16,191.96 197.64,218.99 55.76,137.07 55.84,108.04 61.51,104.75 	
		"/>
	<polyline class="st7" points="238.63,195.17 238.45,210.05 197.57,233.8 61.37,155.16 61.37,140.31 	"/>
	<polyline class="st8" points="244.24,162.93 197.72,189.96 55.84,108.04 	"/>
	<line class="st8" x1="197.72" y1="189.96" x2="197.72" y2="218.99"/>
	<line class="st8" x1="197.64" y1="218.99" x2="197.64" y2="233.8"/>
</g>
<g id="레이어_2">
	<g class="st16">
		<g>
			<g class="st2">
				<g>
					<polygon class="st21" points="61.49,110.99 55.84,108.04 102.36,81.01 102.37,87.23 					"/>
				</g>
				<g>
					<polygon class="st22" points="102.37,87.23 102.36,81.01 244.24,162.93 238.57,165.87 					"/>
				</g>
				<g>
					<polygon class="st23" points="197.63,212.77 197.57,233.8 61.37,155.16 61.43,134.13 					"/>
				</g>
				<g>
					<polygon class="st22" points="238.51,189.01 238.45,210.05 197.57,233.8 197.63,212.77 					"/>
				</g>
				<g>
					<polygon class="st24" points="197.7,189.63 197.72,189.96 55.84,108.04 61.49,110.99 					"/>
				</g>
				<g>
					<polygon class="st22" points="244.24,162.93 244.16,191.96 197.64,218.99 197.72,189.96 					"/>
				</g>
				<g>
					<polygon class="st23" points="197.72,189.96 197.64,218.99 55.76,137.07 55.84,108.04 					"/>
				</g>
				<g>
					<polygon class="st23" points="238.57,165.87 244.24,162.93 197.72,189.96 197.7,189.63 					"/>
				</g>
				<g>
					<polygon class="st23" points="197.76,168.59 197.7,189.63 61.49,110.99 61.55,89.95 					"/>
				</g>
				<g>
					<polygon class="st22" points="238.63,144.84 238.57,165.87 197.7,189.63 197.76,168.59 					"/>
				</g>
				<g>
					<polygon class="st22" points="238.63,144.84 197.76,168.59 61.55,89.95 102.43,66.2 					"/>
				</g>
			</g>
		</g>
	</g>
	<polygon class="st25" points="102.43,66.2 61.55,89.95 61.49,104.99 197.7,183.63 238.57,159.87 238.57,144.84 	"/>
	<polyline class="st26" points="61.55,89.95 197.76,168.59 197.7,183.63 	"/>
	<line class="st26" x1="197.76" y1="168.59" x2="238.57" y2="144.84"/>
	<polyline class="st25" points="238.63,159.69 244.24,162.93 244.16,191.96 197.64,218.99 55.76,137.07 55.84,108.04 61.51,104.75 	
		"/>
	<polyline class="st25" points="238.63,195.17 238.45,210.05 197.57,233.8 61.37,155.16 61.37,140.31 	"/>
	<polyline class="st26" points="244.24,162.93 197.72,189.96 55.84,108.04 	"/>
	<line class="st26" x1="197.72" y1="189.96" x2="197.72" y2="218.99"/>
	<line class="st26" x1="197.64" y1="218.99" x2="197.64" y2="233.8"/>
</g>
</svg>
