<?xml version="1.0" encoding="utf-8"?>
<!-- Generator: Adobe Illustrator 24.2.3, SVG Export Plug-In . SVG Version: 6.00 Build 0)  -->
<svg version="1.1" id="레이어_1" xmlns="http://www.w3.org/2000/svg" xmlns:xlink="http://www.w3.org/1999/xlink" x="0px"
	 y="0px" viewBox="0 0 300 300" style="enable-background:new 0 0 300 300;" xml:space="preserve">
<style type="text/css">
	.st0{display:none;}
	.st1{display:inline;}
	.st2{opacity:0.15;}
	.st3{enable-background:new    ;}
	.st4{fill:#5B5B5B;}
	.st5{fill:#3E3E3E;}
	.st6{fill:#656565;}
	.st7{fill:#474747;}
	.st8{fill:none;stroke:#656565;stroke-linecap:round;stroke-linejoin:round;stroke-miterlimit:10;}
	.st9{fill:none;stroke:#656565;stroke-width:0.5;stroke-linecap:round;stroke-linejoin:round;stroke-miterlimit:10;}
	.st10{opacity:0.9;fill:url(#SVGID_1_);stroke:#686868;stroke-width:1.5;stroke-linejoin:round;stroke-miterlimit:10;}
	.st11{opacity:0.9;fill:#919191;stroke:#686868;stroke-linejoin:round;stroke-miterlimit:10;}
	.st12{opacity:0.5;fill:none;stroke:#333333;stroke-linejoin:round;stroke-miterlimit:10;}
	.st13{opacity:0.4;}
	.st14{opacity:0.9;fill:url(#SVGID_2_);stroke:#686868;stroke-width:1.5;stroke-linejoin:round;stroke-miterlimit:10;}
	.st15{fill:#919191;stroke:#686868;stroke-linejoin:round;stroke-miterlimit:10;}
</style>
<g id="레이어_2_1_" class="st0">
	<g class="st1">
		<g class="st2">
			<g>
				<g class="st3">
					<g>
						<polygon class="st4" points="105,160.3 109.4,171.2 83.6,116.1 78.7,104.2 						"/>
					</g>
					<g>
						<polygon class="st4" points="105.1,115.6 105,160.3 78.7,104.2 78.9,59.5 						"/>
					</g>
					<g>
						<polygon class="st4" points="109.6,106 105.1,115.6 78.9,59.5 83.8,50.9 						"/>
					</g>
					<g>
						<polygon class="st4" points="265.6,165.4 260.7,177.3 245.8,209.7 248.7,202.3 						"/>
					</g>
					<g>
						<polygon class="st4" points="248.7,202.3 245.8,209.7 150.6,195 151.8,187.3 						"/>
					</g>
					<g>
						<polygon class="st5" points="248.8,157.6 248.7,202.3 151.8,187.3 151.9,142.6 						"/>
					</g>
					<g>
						<polygon class="st5" points="265.7,120.7 265.6,165.4 248.7,202.3 248.8,157.6 						"/>
					</g>
					<g>
						<polygon class="st6" points="246,144.5 248.8,157.6 151.9,142.6 150.8,129.8 						"/>
					</g>
					<g>
						<polygon class="st6" points="260.8,112.1 265.7,120.7 248.8,157.6 246,144.5 						"/>
					</g>
					<g>
						<polygon class="st5" points="151.8,187.3 150.6,195 81.1,235.4 81.1,228.4 						"/>
					</g>
					<g>
						<polygon class="st4" points="81.1,228.4 81.1,235.4 39.9,211.6 34.3,201.3 						"/>
					</g>
					<g>
						<polygon class="st6" points="151.9,142.6 151.8,187.3 81.1,228.4 81.3,183.7 						"/>
					</g>
					<g>
						<polygon class="st4" points="81.3,183.7 81.1,228.4 34.3,201.3 34.4,156.6 						"/>
					</g>
					<g>
						<polygon class="st6" points="260.8,112.1 246,144.5 150.8,129.8 81.3,170.1 40.1,146.4 109.6,106 83.8,50.9 139.8,42.2 
							165.5,97.3 						"/>
					</g>
					<g>
						<polygon class="st4" points="81.3,170.1 81.3,183.7 34.4,156.6 40.1,146.4 						"/>
					</g>
					<g>
						<polygon class="st7" points="150.8,129.8 151.9,142.6 81.3,183.7 81.3,170.1 						"/>
					</g>
				</g>
			</g>
		</g>
		<polygon class="st8" points="260.8,112.1 265.7,120.7 265.6,165.4 245.8,209.7 150.6,195 81.1,235.4 39.9,211.6 34.3,201.3 
			34.4,156.6 40.1,146.4 85.5,120 78.7,104.2 78.9,59.5 83.8,50.9 139.8,42.2 165.5,97.3 		"/>
		<polyline class="st9" points="83.8,50.9 109.6,106 85.5,120 		"/>
		<line class="st9" x1="78.9" y1="59.5" x2="102.4" y2="109.9"/>
		<polyline class="st9" points="40.1,146.4 81.3,170.1 150.8,129.8 246,144.5 260.8,112.1 		"/>
		<polyline class="st9" points="265.7,120.7 248.8,157.6 151.9,142.6 81.3,183.7 34.4,156.6 		"/>
		<polyline class="st9" points="81.3,170.1 81.3,183.7 81.1,228.4 81.1,235.4 		"/>
		<polyline class="st9" points="150.8,129.8 151.9,142.6 151.8,187.3 150.6,195 		"/>
		<polyline class="st9" points="34.3,201.3 81.1,228.4 151.8,187.3 248.7,202.3 248.8,157.6 246,144.5 		"/>
	</g>
</g>
<linearGradient id="SVGID_1_" gradientUnits="userSpaceOnUse" x1="65.6969" y1="92.3196" x2="110.7182" y2="170.2986">
	<stop  offset="0" style="stop-color:#CCCBCC;stop-opacity:0.7"/>
	<stop  offset="0.1529" style="stop-color:#C0BFC0;stop-opacity:0.7"/>
	<stop  offset="0.4266" style="stop-color:#A1A1A1;stop-opacity:0.7"/>
	<stop  offset="0.7869" style="stop-color:#706F70;stop-opacity:0.7"/>
	<stop  offset="1" style="stop-color:#4F4F4F;stop-opacity:0.7"/>
</linearGradient>
<polygon class="st10" points="104.2,94.1 104.2,110 141.4,110 141.4,152.6 35,152.6 35,110 72.3,110 72.3,94.1 "/>
<rect x="72.3" y="94.1" class="st11" width="31.9" height="31.9"/>
<line class="st12" x1="88.2" y1="126" x2="88.2" y2="152.6"/>
<g class="st13">
	<path d="M58.2,243.6l3.6-4.9c2.7,2.7,6.2,5.1,11.2,5.1c5.4,0,9.5-3.8,9.5-10.2c0-6.4-3.6-10-9.1-10c-3.1,0-4.9,0.9-7.7,2.7L62,224
		l1.4-22.7h24.2v6.3H70l-1.1,12.3c2-1,4-1.7,6.6-1.7c8,0,14.6,4.7,14.6,15.2C90,244,82.2,250,73.9,250
		C66.3,250,61.6,246.9,58.2,243.6z"/>
	<path d="M99.1,240.3c1.9,2.1,4.8,3.6,7.9,3.6c5.8,0,10.8-4.7,11.2-18.3c-2.8,3.4-6.9,5.6-10.5,5.6c-8,0-13.4-5-13.4-15
		c0-9.5,6.5-15.7,14.2-15.7c9.2,0,16.6,7.4,16.6,23.2c0,18.9-8.6,26.4-17.8,26.4c-5.5,0-9.4-2.2-12.2-5.1L99.1,240.3z M118.1,219.9
		c-0.7-9.4-4.3-13.7-9.5-13.7c-4.1,0-7.3,3.7-7.3,9.9c0,6.1,2.7,9.6,7.7,9.6C111.9,225.7,115.3,224.1,118.1,219.9z"/>
	<path d="M147.1,232.7c-1.4,0-2.7,1-3.7,3l-3.5-2.6c2.3-3.7,4.9-5.1,7.3-5.1c4.1,0,6,4,8.8,4c1.4,0,2.7-1,3.7-2.9l3.5,2.6
		c-2.3,3.6-4.9,5-7.3,5C151.8,236.6,150,232.7,147.1,232.7z"/>
	<path d="M178.2,237.2c0-6.3,4.2-10.5,8.6-12.9v-0.3c-3.6-2.5-6.4-6.1-6.4-11.2c0-7.5,5.8-12.3,13.7-12.3c8.3,0,13.5,5.2,13.5,12.7
		c0,4.9-3.3,9-6.3,11.2v0.3c4.3,2.5,8.1,6.2,8.1,12.7c0,7.1-6.2,12.5-15.5,12.5C184.8,250,178.2,244.7,178.2,237.2z M202.2,237.2
		c0-5.8-5.3-8.1-11.8-10.7c-3.3,2.3-5.6,5.8-5.6,10c0,4.7,4,8.1,9.1,8.1C198.8,244.6,202.2,241.7,202.2,237.2z M201.2,213.7
		c0-4.4-2.7-7.7-7.3-7.7c-3.9,0-6.8,2.7-6.8,7c0,5.2,4.6,7.6,9.9,9.7C199.8,219.9,201.2,216.8,201.2,213.7z"/>
	<path d="M245.4,236.3h-6.1v12.9h-7v-12.9h-20.7v-5l19-30h8.6v29.2h6.1V236.3z M232.3,230.5v-12.5c0-2.6,0.3-6.6,0.4-9.2h-0.3
		c-1.2,2.4-2.5,4.9-3.8,7.3l-9.4,14.4H232.3z"/>
</g>
<g>
	<linearGradient id="SVGID_2_" gradientUnits="userSpaceOnUse" x1="154.4763" y1="98.5394" x2="277.0104" y2="98.5394">
		<stop  offset="0" style="stop-color:#CCCBCC;stop-opacity:0.7"/>
		<stop  offset="0.1529" style="stop-color:#C0BFC0;stop-opacity:0.7"/>
		<stop  offset="0.4266" style="stop-color:#A1A1A1;stop-opacity:0.7"/>
		<stop  offset="0.7869" style="stop-color:#706F70;stop-opacity:0.7"/>
		<stop  offset="1" style="stop-color:#4F4F4F;stop-opacity:0.7"/>
	</linearGradient>
	<polygon class="st14" points="154.5,75.2 185.5,105.9 185.5,107.4 173,107.4 173,152.6 258.2,152.6 258.2,107.4 245.7,107.4 
		245.7,105.9 277,74.6 246.9,44.5 215.6,75.9 184.6,45.1 	"/>
	<rect x="199.6" y="83.2" class="st11" width="31.9" height="31.9"/>
	<line class="st15" x1="185.5" y1="107.4" x2="199.6" y2="107.4"/>
	<line class="st15" x1="245.7" y1="107.4" x2="231.6" y2="107.4"/>
	<line class="st15" x1="215.6" y1="115.1" x2="215.6" y2="152.6"/>
	<line class="st15" x1="215.6" y1="75.9" x2="215.6" y2="83.2"/>
</g>
</svg>
