<?xml version="1.0" encoding="utf-8"?>
<!-- Generator: Adobe Illustrator 24.2.3, SVG Export Plug-In . SVG Version: 6.00 Build 0)  -->
<svg version="1.1" id="레이어_1" xmlns="http://www.w3.org/2000/svg" xmlns:xlink="http://www.w3.org/1999/xlink" x="0px"
	 y="0px" viewBox="0 0 300 300" style="enable-background:new 0 0 300 300;" xml:space="preserve">
<style type="text/css">
	.st0{display:none;}
	.st1{display:inline;}
	.st2{opacity:0.15;}
	.st3{enable-background:new    ;}
	.st4{fill:#5B5B5B;}
	.st5{fill:#3E3E3E;}
	.st6{fill:#656565;}
	.st7{fill:#474747;}
	.st8{fill:none;stroke:#656565;stroke-linecap:round;stroke-linejoin:round;stroke-miterlimit:10;}
	.st9{fill:none;stroke:#656565;stroke-width:0.5;stroke-linecap:round;stroke-linejoin:round;stroke-miterlimit:10;}
	.st10{opacity:0.9;fill:url(#SVGID_1_);stroke:#6548FF;stroke-width:1.5;stroke-linejoin:round;stroke-miterlimit:10;}
	.st11{opacity:0.9;fill:url(#SVGID_2_);stroke:#6548FF;stroke-width:1.5;stroke-linejoin:round;stroke-miterlimit:10;}
	.st12{opacity:0.9;fill:#889FFF;stroke:#6548FF;stroke-linejoin:round;stroke-miterlimit:10;}
	.st13{opacity:0.5;fill:none;stroke:#6548FF;stroke-linejoin:round;stroke-miterlimit:10;}
	.st14{opacity:0.7;}
	.st15{fill:#6548FF;}
</style>
<g id="레이어_2_1_" class="st0">
	<g class="st1">
		<g class="st2">
			<g>
				<g class="st3">
					<g>
						<polygon class="st4" points="105,160.3 109.4,171.2 83.6,116.1 78.7,104.2 						"/>
					</g>
					<g>
						<polygon class="st4" points="105.1,115.6 105,160.3 78.7,104.2 78.9,59.5 						"/>
					</g>
					<g>
						<polygon class="st4" points="109.6,106 105.1,115.6 78.9,59.5 83.8,50.9 						"/>
					</g>
					<g>
						<polygon class="st4" points="265.6,165.4 260.7,177.3 245.8,209.7 248.7,202.3 						"/>
					</g>
					<g>
						<polygon class="st4" points="248.7,202.3 245.8,209.7 150.6,195 151.8,187.3 						"/>
					</g>
					<g>
						<polygon class="st5" points="248.8,157.6 248.7,202.3 151.8,187.3 151.9,142.6 						"/>
					</g>
					<g>
						<polygon class="st5" points="265.7,120.7 265.6,165.4 248.7,202.3 248.8,157.6 						"/>
					</g>
					<g>
						<polygon class="st6" points="246,144.5 248.8,157.6 151.9,142.6 150.8,129.8 						"/>
					</g>
					<g>
						<polygon class="st6" points="260.8,112.1 265.7,120.7 248.8,157.6 246,144.5 						"/>
					</g>
					<g>
						<polygon class="st5" points="151.8,187.3 150.6,195 81.1,235.4 81.1,228.4 						"/>
					</g>
					<g>
						<polygon class="st4" points="81.1,228.4 81.1,235.4 39.9,211.6 34.3,201.3 						"/>
					</g>
					<g>
						<polygon class="st6" points="151.9,142.6 151.8,187.3 81.1,228.4 81.3,183.7 						"/>
					</g>
					<g>
						<polygon class="st4" points="81.3,183.7 81.1,228.4 34.3,201.3 34.4,156.6 						"/>
					</g>
					<g>
						<polygon class="st6" points="260.8,112.1 246,144.5 150.8,129.8 81.3,170.1 40.1,146.4 109.6,106 83.8,50.9 139.8,42.2 
							165.5,97.3 						"/>
					</g>
					<g>
						<polygon class="st4" points="81.3,170.1 81.3,183.7 34.4,156.6 40.1,146.4 						"/>
					</g>
					<g>
						<polygon class="st7" points="150.8,129.8 151.9,142.6 81.3,183.7 81.3,170.1 						"/>
					</g>
				</g>
			</g>
		</g>
		<polygon class="st8" points="260.8,112.1 265.7,120.7 265.6,165.4 245.8,209.7 150.6,195 81.1,235.4 39.9,211.6 34.3,201.3 
			34.4,156.6 40.1,146.4 85.5,120 78.7,104.2 78.9,59.5 83.8,50.9 139.8,42.2 165.5,97.3 		"/>
		<polyline class="st9" points="83.8,50.9 109.6,106 85.5,120 		"/>
		<line class="st9" x1="78.9" y1="59.5" x2="102.4" y2="109.9"/>
		<polyline class="st9" points="40.1,146.4 81.3,170.1 150.8,129.8 246,144.5 260.8,112.1 		"/>
		<polyline class="st9" points="265.7,120.7 248.8,157.6 151.9,142.6 81.3,183.7 34.4,156.6 		"/>
		<polyline class="st9" points="81.3,170.1 81.3,183.7 81.1,228.4 81.1,235.4 		"/>
		<polyline class="st9" points="150.8,129.8 151.9,142.6 151.8,187.3 150.6,195 		"/>
		<polyline class="st9" points="34.3,201.3 81.1,228.4 151.8,187.3 248.7,202.3 248.8,157.6 246,144.5 		"/>
	</g>
</g>
<linearGradient id="SVGID_1_" gradientUnits="userSpaceOnUse" x1="63.2698" y1="92.3196" x2="108.291" y2="170.2986">
	<stop  offset="0" style="stop-color:#AEB4FF;stop-opacity:0.7"/>
	<stop  offset="0.2659" style="stop-color:#A3A8FF;stop-opacity:0.7"/>
	<stop  offset="0.7399" style="stop-color:#868AFF;stop-opacity:0.7"/>
	<stop  offset="1" style="stop-color:#7376FF;stop-opacity:0.7"/>
</linearGradient>
<polygon class="st10" points="101.7,94.1 101.7,110 139,110 139,152.6 32.6,152.6 32.6,110 69.8,110 69.8,94.1 "/>
<linearGradient id="SVGID_2_" gradientUnits="userSpaceOnUse" x1="188.4524" y1="71.1132" x2="243.2082" y2="165.953">
	<stop  offset="0" style="stop-color:#AEB4FF;stop-opacity:0.7"/>
	<stop  offset="0.2659" style="stop-color:#A3A8FF;stop-opacity:0.7"/>
	<stop  offset="0.7399" style="stop-color:#868AFF;stop-opacity:0.7"/>
	<stop  offset="1" style="stop-color:#7376FF;stop-opacity:0.7"/>
</linearGradient>
<polygon class="st11" points="213.2,56.8 213.2,94.1 197.2,94.1 197,110 160,110 160,152.6 266.4,152.6 266.4,110 255.7,110 
	255.7,56.8 "/>
<rect x="69.8" y="94.1" class="st12" width="31.9" height="31.9"/>
<rect x="197.2" y="94.1" class="st12" width="31.9" height="31.9"/>
<line class="st13" x1="85.8" y1="126" x2="85.8" y2="152.6"/>
<line class="st13" x1="213.2" y1="126" x2="213.2" y2="152.6"/>
<line class="st13" x1="229.1" y1="110" x2="255.7" y2="110"/>
<g class="st14">
	<path class="st15" d="M38.2,243.6l3.6-4.9c2.7,2.7,6.2,5.1,11.2,5.1c5.4,0,9.5-3.8,9.5-10.2c0-6.4-3.6-10-9.1-10
		c-3.1,0-4.9,0.9-7.7,2.7L42,224l1.4-22.7h24.2v6.3H50l-1.1,12.3c2-1,4-1.7,6.6-1.7c8,0,14.6,4.7,14.6,15.2
		C70,244,62.3,250,53.9,250C46.3,250,41.6,246.9,38.2,243.6z"/>
	<path class="st15" d="M79.2,240.3c1.9,2.1,4.8,3.6,7.9,3.6c5.8,0,10.8-4.7,11.2-18.3c-2.8,3.4-6.9,5.6-10.5,5.6
		c-8,0-13.4-5-13.4-15c0-9.5,6.5-15.7,14.2-15.7c9.2,0,16.6,7.4,16.6,23.2c0,18.9-8.6,26.4-17.8,26.4c-5.5,0-9.4-2.2-12.2-5.1
		L79.2,240.3z M98.1,219.9c-0.7-9.4-4.3-13.7-9.5-13.7c-4.1,0-7.3,3.7-7.3,9.9c0,6.1,2.7,9.6,7.7,9.6
		C92,225.7,95.3,224.1,98.1,219.9z"/>
	<path class="st15" d="M127.1,232.7c-1.4,0-2.7,1-3.7,3l-3.5-2.6c2.3-3.7,4.9-5.1,7.3-5.1c4.1,0,6,4,8.8,4c1.4,0,2.7-1,3.7-2.9
		l3.5,2.6c-2.3,3.6-4.9,5-7.3,5C131.8,236.6,130,232.7,127.1,232.7z"/>
	<path class="st15" d="M160.8,243h10.5v-33.3h-8.6v-4.7c4.5-0.8,7.7-2,10.4-3.6h5.7V243h9.4v6.2h-27.3V243z"/>
	<path class="st15" d="M219.7,210.1c-1.8-2.1-4.7-3.6-7.5-3.6c-6.1,0-11.2,4.6-11.5,18.3c2.8-3.4,7-5.5,10.4-5.5
		c8.1,0,13.5,4.9,13.5,15.1c0,9.5-6.5,15.7-14.3,15.7c-9.1,0-16.5-7.6-16.5-23.9c0-18.4,8.6-25.7,18.1-25.7c5.3,0,9.2,2.3,12,5.1
		L219.7,210.1z M217.6,234.3c0-6.2-2.7-9.6-7.9-9.6c-2.8,0-6,1.5-8.9,5.6c0.8,9.5,4.2,14,9.4,14
		C214.4,244.3,217.6,240.5,217.6,234.3z"/>
	<path class="st15" d="M260.5,236.3h-6.1v12.9h-7v-12.9h-20.7v-5l19-30h8.6v29.2h6.1V236.3z M247.4,230.5v-12.5
		c0-2.6,0.3-6.6,0.4-9.2h-0.3c-1.2,2.4-2.5,4.9-3.8,7.3l-9.4,14.4H247.4z"/>
</g>
</svg>
