<?xml version="1.0" encoding="utf-8"?>
<!-- Generator: Adobe Illustrator 24.2.3, SVG Export Plug-In . SVG Version: 6.00 Build 0)  -->
<svg version="1.1" id="레이어_1" xmlns="http://www.w3.org/2000/svg" xmlns:xlink="http://www.w3.org/1999/xlink" x="0px"
	 y="0px" viewBox="0 0 36 36" style="enable-background:new 0 0 36 36;" xml:space="preserve">
<style type="text/css">
	.st0{opacity:0.15;fill-rule:evenodd;clip-rule:evenodd;fill:#00005A;}
	.st1{fill:#696B8C;}
</style>
<path class="st0" d="M30.3,36H5.7C2.5,36,0,33.5,0,30.3V5.7C0,2.5,2.5,0,5.7,0h24.7C33.5,0,36,2.5,36,5.7v24.7
	C36,33.5,33.5,36,30.3,36z"/>
<g>
	<path class="st1" d="M13,15.4c-0.7,1.9-2.5,3.2-5,3.9l-0.5-1.1c2.8-0.8,4.3-2.2,4.5-4H8.1v-1.1h5.3c0,0.4,0,0.8-0.1,1.2h2.4v-2h1.3
		v6.9h-1.3v-1.4h-2.8v-1.1h2.8v-1.4H13z M17.2,21.7c0,1.4-1.5,2.3-3.9,2.3c-2.4,0-3.9-0.9-3.9-2.3c0-1.4,1.5-2.3,3.9-2.3
		C15.6,19.4,17.2,20.3,17.2,21.7z M15.8,21.7c0-0.8-1-1.3-2.6-1.3c-1.6,0-2.6,0.5-2.6,1.3c0,0.8,1,1.3,2.6,1.3
		C14.8,23,15.8,22.5,15.8,21.7z"/>
	<path class="st1" d="M24.3,19.1c-1.3-0.5-2.2-1.4-2.8-2.5c-0.5,1.3-1.5,2.3-2.9,2.8l-0.7-1c1.9-0.6,2.9-2.2,2.9-3.9V13h1.4v1.4
		c0,1.6,1,3,2.8,3.7L24.3,19.1z M21.1,22.8h6.5v1.1h-7.9v-3.7h1.3V22.8z M28.8,15.8v1.1h-1.7v4h-1.3v-8.7h1.3v3.5H28.8z"/>
</g>
</svg>
