<?xml version="1.0" encoding="utf-8"?>
<!-- Generator: Adobe Illustrator 25.2.3, SVG Export Plug-In . SVG Version: 6.00 Build 0)  -->
<svg version="1.1" xmlns="http://www.w3.org/2000/svg" xmlns:xlink="http://www.w3.org/1999/xlink" x="0px" y="0px"
	 viewBox="0 0 300 300" style="enable-background:new 0 0 300 300;" xml:space="preserve">
<style type="text/css">
	.st0{display:none;}
	.st1{display:inline;opacity:0.15;}
	.st2{enable-background:new    ;}
	.st3{fill:#392CFF;stroke:#6548FF;stroke-miterlimit:10;}
	.st4{fill:#6548FF;stroke:#6548FF;stroke-miterlimit:10;}
	.st5{fill:#3D4BFF;stroke:#6548FF;stroke-miterlimit:10;}
	.st6{fill:#4915FF;stroke:#6548FF;stroke-miterlimit:10;}
	.st7{display:inline;fill:none;stroke:#6548FF;stroke-linecap:round;stroke-linejoin:round;stroke-miterlimit:10;}
	.st8{display:inline;fill:none;stroke:#6548FF;stroke-width:0.5;stroke-linecap:round;stroke-linejoin:round;stroke-miterlimit:10;}
	.st9{display:inline;}
	.st10{opacity:0.149;fill:#4915FF;}
	.st11{opacity:0.149;fill:#3D4BFF;}
	.st12{opacity:0.149;fill:#6548FF;}
	.st13{opacity:0.149;fill:#392CFF;}
	.st14{fill:none;stroke:#6548FF;stroke-linecap:round;stroke-linejoin:round;stroke-miterlimit:10;}
	.st15{fill:none;stroke:#6548FF;stroke-width:0.5;stroke-linecap:round;stroke-linejoin:round;stroke-miterlimit:10;}
	.st16{opacity:0.15;}
	.st17{fill:#3D4BFF;}
	.st18{fill:#4915FF;}
	.st19{fill:#6548FF;}
	.st20{fill:#392CFF;}
	.st21{fill:#474747;stroke:#656565;stroke-miterlimit:10;}
	.st22{fill:#656565;stroke:#656565;stroke-miterlimit:10;}
	.st23{fill:#5B5B5B;stroke:#656565;stroke-miterlimit:10;}
	.st24{fill:#3E3E3E;stroke:#656565;stroke-miterlimit:10;}
	.st25{fill:none;stroke:#656565;stroke-linecap:round;stroke-linejoin:round;stroke-miterlimit:10;}
	.st26{fill:none;stroke:#656565;stroke-width:0.5;stroke-linecap:round;stroke-linejoin:round;stroke-miterlimit:10;}
	.st27{opacity:0.149;fill:#3E3E3E;}
	.st28{opacity:0.149;fill:#5B5B5B;}
	.st29{opacity:0.149;fill:#656565;}
	.st30{opacity:0.149;fill:#474747;}
	.st31{fill:#5B5B5B;}
	.st32{fill:#3E3E3E;}
	.st33{fill:#656565;}
	.st34{fill:#474747;}
</style>
<g id="레이어_1" class="st0">
	<g class="st9">
		<g class="st16">
			<g>
				<g class="st2">
					<g>
						<polygon class="st17" points="116.8,81.5 116.68,126.2 116.61,114.43 116.74,69.72 						"/>
					</g>
					<g>
						<polygon class="st18" points="243.82,144.91 238.14,155.16 219.82,165.81 229.5,153.24 						"/>
					</g>
					<g>
						<polygon class="st17" points="70.16,153.24 79.79,165.81 61.36,155.16 55.73,144.91 						"/>
					</g>
					<g>
						<polygon class="st18" points="178.78,61.78 182.74,69.72 182.8,81.5 178.86,76.84 						"/>
					</g>
					<g>
						<polygon class="st17" points="120.86,76.84 116.8,81.5 116.74,69.72 120.78,61.79 						"/>
					</g>
					<g>
						<polygon class="st19" points="243.95,100.2 243.82,144.91 229.5,153.24 229.62,108.53 						"/>
					</g>
					<g>
						<polygon class="st17" points="70.28,108.53 70.16,153.24 55.73,144.91 55.86,100.2 						"/>
					</g>
					<g>
						<polygon class="st20" points="238.32,89.95 243.95,100.2 229.62,108.53 220.01,100.59 						"/>
					</g>
					<g>
						<polygon class="st17" points="79.98,100.59 70.28,108.53 55.86,100.2 61.55,89.95 						"/>
					</g>
					<g>
						<polygon class="st17" points="250.05,191.47 246.01,199.41 220.02,199.4 229.72,191.47 						"/>
					</g>
					<g>
						<polygon class="st17" points="70.38,191.47 79.99,199.4 54,199.4 50.04,191.47 						"/>
					</g>
					<g>
						<polygon class="st18" points="250.18,146.76 250.05,191.47 229.72,191.47 229.84,146.76 						"/>
					</g>
					<g>
						<polygon class="st17" points="50.17,146.76 50.04,191.47 49.82,153.24 49.95,108.53 						"/>
					</g>
					<g>
						<polygon class="st18" points="70.5,146.76 70.38,191.47 50.04,191.47 50.17,146.76 						"/>
					</g>
					<g>
						<polygon class="st18" points="246,100.59 249.96,108.53 250.18,146.76 246.19,134.19 						"/>
					</g>
					<g>
						<polygon class="st19" points="246.19,134.19 250.18,146.76 229.84,146.76 220.2,134.19 						"/>
					</g>
					<g>
						<polygon class="st17" points="54.18,134.19 50.17,146.76 49.95,108.53 53.99,100.6 						"/>
					</g>
					<g>
						<polygon class="st19" points="80.18,134.19 70.5,146.76 50.17,146.76 54.18,134.19 						"/>
					</g>
					<g>
						<polygon class="st17" points="197.62,226.83 197.57,233.8 179.14,223.16 183.2,218.5 						"/>
					</g>
					<g>
						<polygon class="st18" points="244.14,199.79 238.45,210.05 197.57,233.8 197.62,226.83 						"/>
					</g>
					<g>
						<polygon class="st18" points="117.2,218.5 121.14,223.16 102.82,233.8 102.87,226.82 						"/>
					</g>
					<g>
						<polygon class="st17" points="102.87,226.82 102.82,233.8 61.68,210.05 56.05,199.79 						"/>
					</g>
					<g>
						<polygon class="st17" points="183.26,230.28 179.22,238.22 121.22,238.22 117.26,230.28 						"/>
					</g>
					<g>
						<polygon class="st19" points="244.27,155.09 244.14,199.79 197.62,226.83 197.75,182.12 						"/>
					</g>
					<g>
						<polygon class="st17" points="197.75,182.12 197.62,226.83 183.2,218.5 183.32,173.79 						"/>
					</g>
					<g>
						<polygon class="st17" points="102.99,182.12 102.87,226.82 56.05,199.79 56.18,155.09 						"/>
					</g>
					<g>
						<polygon class="st19" points="117.32,173.79 117.2,218.5 102.87,226.82 102.99,182.12 						"/>
					</g>
					<g>
						<polygon class="st20" points="238.64,144.83 244.27,155.09 197.75,182.12 197.76,168.59 						"/>
					</g>
					<g>
						<polygon class="st17" points="197.76,168.59 197.75,182.12 183.32,173.79 179.32,157.95 						"/>
					</g>
					<g>
						<polygon class="st17" points="103,168.59 102.99,182.12 56.18,155.09 61.86,144.83 						"/>
					</g>
					<g>
						<polygon class="st20" points="121.32,157.94 117.32,173.79 102.99,182.12 103,168.59 						"/>
					</g>
					<g>
						<polygon class="st17" points="117.39,185.57 117.26,230.28 117.2,218.5 117.32,173.79 						"/>
					</g>
					<g>
						<polygon class="st18" points="183.39,185.58 183.26,230.28 117.26,230.28 117.39,185.57 						"/>
					</g>
					<g>
						<polygon class="st18" points="179.32,157.95 183.32,173.79 183.39,185.58 179.41,173.01 						"/>
					</g>
					<g>
						<polygon class="st19" points="179.41,173.01 183.39,185.58 117.39,185.57 121.41,173 						"/>
					</g>
					<g>
						<polygon class="st17" points="121.41,173 117.39,185.57 117.32,173.79 121.32,157.94 						"/>
					</g>
					<g>
						<polygon class="st19" points="238.32,89.95 220.01,100.59 246,100.59 246.19,134.19 220.2,134.19 238.64,144.83 
							197.76,168.59 179.32,157.95 179.41,173.01 121.41,173 121.32,157.94 103,168.59 61.86,144.83 80.18,134.19 54.18,134.19 
							53.99,100.6 79.98,100.59 61.55,89.95 102.43,66.19 120.86,76.84 120.78,61.79 178.78,61.78 178.86,76.84 197.18,66.2 						
							"/>
					</g>
				</g>
			</g>
		</g>
		<polygon class="st14" points="120.78,61.79 116.74,69.72 117.2,74.72 102.43,66.19 61.55,89.95 55.86,100.2 55.86,100.6 
			53.99,100.6 49.95,108.53 50.17,146.76 50.17,191.47 54,199.4 56.05,199.4 56.05,199.79 61.68,210.05 102.82,233.8 117.24,225.42 
			117.24,230.28 121.22,238.22 179.22,238.22 183.26,230.28 183.39,225.62 197.57,233.8 238.45,210.05 244.14,199.79 244.14,199.41 
			246.01,199.41 250.05,191.47 250.18,146.76 249.96,108.53 246,100.59 243.95,100.59 243.95,100.2 238.32,89.95 197.18,66.2 
			182.76,74.57 182.74,69.72 178.78,61.78 		"/>
		<polyline class="st15" points="120.78,61.79 120.86,76.84 117.2,74.72 		"/>
		<polyline class="st15" points="178.78,61.78 178.86,76.84 182.76,74.57 		"/>
		<polyline class="st15" points="238.32,89.95 220.01,100.59 244.21,100.6 		"/>
		<polygon class="st15" points="239.7,146.76 250.18,146.76 246.19,134.19 220.2,134.19 238.64,144.83 		"/>
		<polyline class="st15" points="239.7,146.76 244.27,155.09 244.14,199.79 		"/>
		<line class="st15" x1="250.05" y1="191.47" x2="244.14" y2="191.47"/>
		<polyline class="st15" points="238.64,144.83 197.76,168.59 179.32,157.95 179.41,173.01 121.41,173 121.32,157.94 103,168.59 
			61.86,144.83 80.18,134.19 54.18,134.19 53.99,100.6 79.98,100.59 61.55,89.95 		"/>
		<polyline class="st15" points="244.27,155.09 197.75,182.12 183.32,173.79 183.39,185.58 117.39,185.57 117.32,173.79 
			102.99,182.12 56.18,155.09 61.86,144.83 		"/>
		<polyline class="st15" points="60.79,146.76 50.17,146.76 54.18,134.19 		"/>
		<line class="st15" x1="179.32" y1="157.95" x2="183.32" y2="173.79"/>
		<polyline class="st15" points="179.41,173.01 183.39,185.58 183.26,230.28 117.26,230.28 		"/>
		<polyline class="st15" points="183.39,218.61 197.62,226.83 244.14,199.79 		"/>
		<polyline class="st15" points="117.2,218.5 102.87,226.82 56.05,199.79 56.18,155.09 		"/>
		<line class="st15" x1="50.17" y1="191.47" x2="56.05" y2="191.47"/>
		<polyline class="st15" points="103,168.59 102.99,182.12 102.87,226.82 102.82,233.8 		"/>
		<polyline class="st15" points="121.41,173 117.39,185.57 117.26,230.28 		"/>
		<line class="st15" x1="121.14" y1="158.68" x2="117.32" y2="173.79"/>
		<polyline class="st15" points="197.76,168.59 197.75,182.12 197.62,226.83 197.57,233.8 		"/>
		<line class="st15" x1="246" y1="100.59" x2="246.19" y2="134.19"/>
	</g>
</g>
<g id="레이어_2">
	<g>
		<g class="st16">
			<g>
				<g class="st2">
					<g>
						<polygon class="st31" points="116.8,81.5 116.68,126.2 116.61,114.43 116.74,69.72 						"/>
					</g>
					<g>
						<polygon class="st32" points="243.82,144.91 238.14,155.16 219.82,165.81 229.5,153.24 						"/>
					</g>
					<g>
						<polygon class="st31" points="70.16,153.24 79.79,165.81 61.36,155.16 55.73,144.91 						"/>
					</g>
					<g>
						<polygon class="st32" points="178.78,61.78 182.74,69.72 182.8,81.5 178.86,76.84 						"/>
					</g>
					<g>
						<polygon class="st31" points="120.86,76.84 116.8,81.5 116.74,69.72 120.78,61.79 						"/>
					</g>
					<g>
						<polygon class="st33" points="243.95,100.2 243.82,144.91 229.5,153.24 229.62,108.53 						"/>
					</g>
					<g>
						<polygon class="st31" points="70.28,108.53 70.16,153.24 55.73,144.91 55.86,100.2 						"/>
					</g>
					<g>
						<polygon class="st34" points="238.32,89.95 243.95,100.2 229.62,108.53 220.01,100.59 						"/>
					</g>
					<g>
						<polygon class="st31" points="79.98,100.59 70.28,108.53 55.86,100.2 61.55,89.95 						"/>
					</g>
					<g>
						<polygon class="st31" points="250.05,191.47 246.01,199.41 220.02,199.4 229.72,191.47 						"/>
					</g>
					<g>
						<polygon class="st31" points="70.38,191.47 79.99,199.4 54,199.4 50.04,191.47 						"/>
					</g>
					<g>
						<polygon class="st32" points="250.18,146.76 250.05,191.47 229.72,191.47 229.84,146.76 						"/>
					</g>
					<g>
						<polygon class="st31" points="50.17,146.76 50.04,191.47 49.82,153.24 49.95,108.53 						"/>
					</g>
					<g>
						<polygon class="st32" points="70.5,146.76 70.38,191.47 50.04,191.47 50.17,146.76 						"/>
					</g>
					<g>
						<polygon class="st32" points="246,100.59 249.96,108.53 250.18,146.76 246.19,134.19 						"/>
					</g>
					<g>
						<polygon class="st33" points="246.19,134.19 250.18,146.76 229.84,146.76 220.2,134.19 						"/>
					</g>
					<g>
						<polygon class="st31" points="54.18,134.19 50.17,146.76 49.95,108.53 53.99,100.6 						"/>
					</g>
					<g>
						<polygon class="st33" points="80.18,134.19 70.5,146.76 50.17,146.76 54.18,134.19 						"/>
					</g>
					<g>
						<polygon class="st31" points="197.62,226.83 197.57,233.8 179.14,223.16 183.2,218.5 						"/>
					</g>
					<g>
						<polygon class="st32" points="244.14,199.79 238.45,210.05 197.57,233.8 197.62,226.83 						"/>
					</g>
					<g>
						<polygon class="st32" points="117.2,218.5 121.14,223.16 102.82,233.8 102.87,226.82 						"/>
					</g>
					<g>
						<polygon class="st31" points="102.87,226.82 102.82,233.8 61.68,210.05 56.05,199.79 						"/>
					</g>
					<g>
						<polygon class="st31" points="183.26,230.28 179.22,238.22 121.22,238.22 117.26,230.28 						"/>
					</g>
					<g>
						<polygon class="st33" points="244.27,155.09 244.14,199.79 197.62,226.83 197.75,182.12 						"/>
					</g>
					<g>
						<polygon class="st31" points="197.75,182.12 197.62,226.83 183.2,218.5 183.32,173.79 						"/>
					</g>
					<g>
						<polygon class="st31" points="102.99,182.12 102.87,226.82 56.05,199.79 56.18,155.09 						"/>
					</g>
					<g>
						<polygon class="st33" points="117.32,173.79 117.2,218.5 102.87,226.82 102.99,182.12 						"/>
					</g>
					<g>
						<polygon class="st34" points="238.64,144.83 244.27,155.09 197.75,182.12 197.76,168.59 						"/>
					</g>
					<g>
						<polygon class="st31" points="197.76,168.59 197.75,182.12 183.32,173.79 179.32,157.95 						"/>
					</g>
					<g>
						<polygon class="st31" points="103,168.59 102.99,182.12 56.18,155.09 61.86,144.83 						"/>
					</g>
					<g>
						<polygon class="st34" points="121.32,157.94 117.32,173.79 102.99,182.12 103,168.59 						"/>
					</g>
					<g>
						<polygon class="st31" points="117.39,185.57 117.26,230.28 117.2,218.5 117.32,173.79 						"/>
					</g>
					<g>
						<polygon class="st32" points="183.39,185.58 183.26,230.28 117.26,230.28 117.39,185.57 						"/>
					</g>
					<g>
						<polygon class="st32" points="179.32,157.95 183.32,173.79 183.39,185.58 179.41,173.01 						"/>
					</g>
					<g>
						<polygon class="st33" points="179.41,173.01 183.39,185.58 117.39,185.57 121.41,173 						"/>
					</g>
					<g>
						<polygon class="st31" points="121.41,173 117.39,185.57 117.32,173.79 121.32,157.94 						"/>
					</g>
					<g>
						<polygon class="st33" points="238.32,89.95 220.01,100.59 246,100.59 246.19,134.19 220.2,134.19 238.64,144.83 
							197.76,168.59 179.32,157.95 179.41,173.01 121.41,173 121.32,157.94 103,168.59 61.86,144.83 80.18,134.19 54.18,134.19 
							53.99,100.6 79.98,100.59 61.55,89.95 102.43,66.19 120.86,76.84 120.78,61.79 178.78,61.78 178.86,76.84 197.18,66.2 						
							"/>
					</g>
				</g>
			</g>
		</g>
		<polygon class="st25" points="120.78,61.79 116.74,69.72 117.2,74.72 102.43,66.19 61.55,89.95 55.86,100.2 55.86,100.6 
			53.99,100.6 49.95,108.53 50.17,146.76 50.17,191.47 54,199.4 56.05,199.4 56.05,199.79 61.68,210.05 102.82,233.8 117.24,225.42 
			117.24,230.28 121.22,238.22 179.22,238.22 183.26,230.28 183.39,225.62 197.57,233.8 238.45,210.05 244.14,199.79 244.14,199.41 
			246.01,199.41 250.05,191.47 250.18,146.76 249.96,108.53 246,100.59 243.95,100.59 243.95,100.2 238.32,89.95 197.18,66.2 
			182.76,74.57 182.74,69.72 178.78,61.78 		"/>
		<polyline class="st26" points="120.78,61.79 120.86,76.84 117.2,74.72 		"/>
		<polyline class="st26" points="178.78,61.78 178.86,76.84 182.76,74.57 		"/>
		<polyline class="st26" points="238.32,89.95 220.01,100.59 244.21,100.6 		"/>
		<polygon class="st26" points="239.7,146.76 250.18,146.76 246.19,134.19 220.2,134.19 238.64,144.83 		"/>
		<polyline class="st26" points="239.7,146.76 244.27,155.09 244.14,199.79 		"/>
		<line class="st26" x1="250.05" y1="191.47" x2="244.14" y2="191.47"/>
		<polyline class="st26" points="238.64,144.83 197.76,168.59 179.32,157.95 179.41,173.01 121.41,173 121.32,157.94 103,168.59 
			61.86,144.83 80.18,134.19 54.18,134.19 53.99,100.6 79.98,100.59 61.55,89.95 		"/>
		<polyline class="st26" points="244.27,155.09 197.75,182.12 183.32,173.79 183.39,185.58 117.39,185.57 117.32,173.79 
			102.99,182.12 56.18,155.09 61.86,144.83 		"/>
		<polyline class="st26" points="60.79,146.76 50.17,146.76 54.18,134.19 		"/>
		<line class="st26" x1="179.32" y1="157.95" x2="183.32" y2="173.79"/>
		<polyline class="st26" points="179.41,173.01 183.39,185.58 183.26,230.28 117.26,230.28 		"/>
		<polyline class="st26" points="183.39,218.61 197.62,226.83 244.14,199.79 		"/>
		<polyline class="st26" points="117.2,218.5 102.87,226.82 56.05,199.79 56.18,155.09 		"/>
		<line class="st26" x1="50.17" y1="191.47" x2="56.05" y2="191.47"/>
		<polyline class="st26" points="103,168.59 102.99,182.12 102.87,226.82 102.82,233.8 		"/>
		<polyline class="st26" points="121.41,173 117.39,185.57 117.26,230.28 		"/>
		<line class="st26" x1="121.14" y1="158.68" x2="117.32" y2="173.79"/>
		<polyline class="st26" points="197.76,168.59 197.75,182.12 197.62,226.83 197.57,233.8 		"/>
		<line class="st26" x1="246" y1="100.59" x2="246.19" y2="134.19"/>
	</g>
</g>
</svg>
