<?xml version="1.0" encoding="utf-8"?>
<!-- Generator: Adobe Illustrator 25.2.3, SVG Export Plug-In . SVG Version: 6.00 Build 0)  -->
<svg version="1.1" xmlns="http://www.w3.org/2000/svg" xmlns:xlink="http://www.w3.org/1999/xlink" x="0px" y="0px"
	 viewBox="0 0 300 300" style="enable-background:new 0 0 300 300;" xml:space="preserve">
<style type="text/css">
	.st0{opacity:0.15;}
	.st1{enable-background:new    ;}
	.st2{fill:#392CFF;stroke:#6548FF;stroke-miterlimit:10;}
	.st3{fill:#6548FF;stroke:#6548FF;stroke-miterlimit:10;}
	.st4{fill:#3D4BFF;stroke:#6548FF;stroke-miterlimit:10;}
	.st5{fill:#4915FF;stroke:#6548FF;stroke-miterlimit:10;}
	.st6{fill:none;stroke:#6548FF;stroke-linecap:round;stroke-linejoin:round;stroke-miterlimit:10;}
	.st7{fill:none;stroke:#6548FF;stroke-width:0.5;stroke-linecap:round;stroke-linejoin:round;stroke-miterlimit:10;}
	.st8{opacity:0.149;fill:#4915FF;}
	.st9{opacity:0.149;fill:#3D4BFF;}
	.st10{opacity:0.149;fill:#6548FF;}
	.st11{opacity:0.149;fill:#392CFF;}
	.st12{fill:#3D4BFF;}
	.st13{fill:#4915FF;}
	.st14{fill:#6548FF;}
	.st15{fill:#392CFF;}
	.st16{display:none;}
	.st17{display:inline;opacity:0.15;}
	.st18{fill:#474747;stroke:#656565;stroke-miterlimit:10;}
	.st19{fill:#656565;stroke:#656565;stroke-miterlimit:10;}
	.st20{fill:#5B5B5B;stroke:#656565;stroke-miterlimit:10;}
	.st21{fill:#3E3E3E;stroke:#656565;stroke-miterlimit:10;}
	.st22{display:inline;fill:none;stroke:#656565;stroke-linecap:round;stroke-linejoin:round;stroke-miterlimit:10;}
	
		.st23{display:inline;fill:none;stroke:#656565;stroke-width:0.5;stroke-linecap:round;stroke-linejoin:round;stroke-miterlimit:10;}
	.st24{display:inline;}
	.st25{opacity:0.149;fill:#3E3E3E;}
	.st26{opacity:0.149;fill:#5B5B5B;}
	.st27{opacity:0.149;fill:#656565;}
	.st28{opacity:0.149;fill:#474747;}
	.st29{fill:none;stroke:#656565;stroke-linecap:round;stroke-linejoin:round;stroke-miterlimit:10;}
	.st30{fill:none;stroke:#656565;stroke-width:0.5;stroke-linecap:round;stroke-linejoin:round;stroke-miterlimit:10;}
	.st31{fill:#5B5B5B;}
	.st32{fill:#3E3E3E;}
	.st33{fill:#656565;}
	.st34{fill:#474747;}
</style>
<g id="레이어_1">
	<g>
		<g class="st0">
			<g>
				<g class="st1">
					<g>
						<polygon class="st12" points="126.73,144.91 132.36,155.17 84.82,127.72 79.19,117.47 						"/>
					</g>
					<g>
						<polygon class="st12" points="126.85,100.21 126.73,144.91 79.19,117.47 79.32,72.76 						"/>
					</g>
					<g>
						<polygon class="st12" points="132.54,89.95 126.85,100.21 79.32,72.76 85.01,62.51 						"/>
					</g>
					<g>
						<polygon class="st13" points="267.59,172.35 261.9,182.6 221.03,206.36 221.07,199.38 						"/>
					</g>
					<g>
						<polygon class="st12" points="221.07,199.38 221.03,206.36 173.5,178.92 173.55,171.94 						"/>
					</g>
					<g>
						<polygon class="st12" points="221.2,154.68 221.07,199.38 173.55,171.94 173.67,127.24 						"/>
					</g>
					<g>
						<polygon class="st14" points="267.72,127.65 267.59,172.35 221.07,199.38 221.2,154.68 						"/>
					</g>
					<g>
						<polygon class="st12" points="221.21,141.15 221.2,154.68 173.67,127.24 173.68,113.71 						"/>
					</g>
					<g>
						<polygon class="st15" points="262.09,117.39 267.72,127.65 221.2,154.68 221.21,141.15 						"/>
					</g>
					<g>
						<polygon class="st13" points="173.55,171.94 173.5,178.92 79.06,233.8 79.1,226.83 						"/>
					</g>
					<g>
						<polygon class="st12" points="79.1,226.83 79.06,233.8 37.91,210.05 32.28,199.8 						"/>
					</g>
					<g>
						<polygon class="st14" points="173.67,127.24 173.55,171.94 79.1,226.83 79.23,182.12 						"/>
					</g>
					<g>
						<polygon class="st12" points="79.23,182.12 79.1,226.83 32.28,199.8 32.41,155.09 						"/>
					</g>
					<g>
						<polygon class="st14" points="262.09,117.39 221.21,141.15 173.68,113.71 79.24,168.59 38.1,144.84 132.54,89.95 85.01,62.51 
							125.88,38.75 						"/>
					</g>
					<g>
						<polygon class="st12" points="79.24,168.59 79.23,182.12 32.41,155.09 38.1,144.84 						"/>
					</g>
					<g>
						<polygon class="st15" points="173.68,113.71 173.67,127.24 79.23,182.12 79.24,168.59 						"/>
					</g>
				</g>
			</g>
		</g>
		<polygon class="st6" points="125.88,38.75 85.01,62.51 79.32,72.76 79.19,117.47 82.2,119.21 38.1,144.84 32.41,155.09 
			32.28,199.8 37.91,210.05 79.06,233.8 173.5,178.92 221.03,206.36 261.9,182.6 267.59,172.35 267.72,127.65 262.09,117.39 		"/>
		<polyline class="st6" points="85.01,62.51 132.54,89.95 82.2,119.21 		"/>
		<polyline class="st7" points="38.1,144.84 79.24,168.59 173.68,113.71 221.21,141.15 262.09,117.39 		"/>
		<polyline class="st7" points="79.24,168.59 79.23,182.12 79.1,226.83 79.06,233.8 		"/>
		<polyline class="st7" points="32.28,199.8 79.1,226.83 173.55,171.94 221.07,199.38 267.59,172.35 		"/>
		<polyline class="st7" points="173.68,113.71 173.67,127.24 173.55,171.94 173.5,178.92 		"/>
		<polyline class="st7" points="221.21,141.15 221.2,154.68 221.07,199.38 221.03,206.36 		"/>
		<polyline class="st7" points="267.72,127.65 221.2,154.68 173.67,127.24 79.23,182.12 32.41,155.09 		"/>
		<line class="st7" x1="79.32" y1="72.76" x2="120.86" y2="96.74"/>
	</g>
</g>
<g id="레이어_2" class="st16">
	<g class="st24">
		<g class="st0">
			<g>
				<g class="st1">
					<g>
						<polygon class="st31" points="126.73,144.91 132.36,155.17 84.82,127.72 79.19,117.47 						"/>
					</g>
					<g>
						<polygon class="st31" points="126.85,100.21 126.73,144.91 79.19,117.47 79.32,72.76 						"/>
					</g>
					<g>
						<polygon class="st31" points="132.54,89.95 126.85,100.21 79.32,72.76 85.01,62.51 						"/>
					</g>
					<g>
						<polygon class="st32" points="267.59,172.35 261.9,182.6 221.03,206.36 221.07,199.38 						"/>
					</g>
					<g>
						<polygon class="st31" points="221.07,199.38 221.03,206.36 173.5,178.92 173.55,171.94 						"/>
					</g>
					<g>
						<polygon class="st31" points="221.2,154.68 221.07,199.38 173.55,171.94 173.67,127.24 						"/>
					</g>
					<g>
						<polygon class="st33" points="267.72,127.65 267.59,172.35 221.07,199.38 221.2,154.68 						"/>
					</g>
					<g>
						<polygon class="st31" points="221.21,141.15 221.2,154.68 173.67,127.24 173.68,113.71 						"/>
					</g>
					<g>
						<polygon class="st34" points="262.09,117.39 267.72,127.65 221.2,154.68 221.21,141.15 						"/>
					</g>
					<g>
						<polygon class="st32" points="173.55,171.94 173.5,178.92 79.06,233.8 79.1,226.83 						"/>
					</g>
					<g>
						<polygon class="st31" points="79.1,226.83 79.06,233.8 37.91,210.05 32.28,199.8 						"/>
					</g>
					<g>
						<polygon class="st33" points="173.67,127.24 173.55,171.94 79.1,226.83 79.23,182.12 						"/>
					</g>
					<g>
						<polygon class="st31" points="79.23,182.12 79.1,226.83 32.28,199.8 32.41,155.09 						"/>
					</g>
					<g>
						<polygon class="st33" points="262.09,117.39 221.21,141.15 173.68,113.71 79.24,168.59 38.1,144.84 132.54,89.95 85.01,62.51 
							125.88,38.75 						"/>
					</g>
					<g>
						<polygon class="st31" points="79.24,168.59 79.23,182.12 32.41,155.09 38.1,144.84 						"/>
					</g>
					<g>
						<polygon class="st34" points="173.68,113.71 173.67,127.24 79.23,182.12 79.24,168.59 						"/>
					</g>
				</g>
			</g>
		</g>
		<polygon class="st29" points="125.88,38.75 85.01,62.51 79.32,72.76 79.19,117.47 82.2,119.21 38.1,144.84 32.41,155.09 
			32.28,199.8 37.91,210.05 79.06,233.8 173.5,178.92 221.03,206.36 261.9,182.6 267.59,172.35 267.72,127.65 262.09,117.39 		"/>
		<polyline class="st29" points="85.01,62.51 132.54,89.95 82.2,119.21 		"/>
		<polyline class="st30" points="38.1,144.84 79.24,168.59 173.68,113.71 221.21,141.15 262.09,117.39 		"/>
		<polyline class="st30" points="79.24,168.59 79.23,182.12 79.1,226.83 79.06,233.8 		"/>
		<polyline class="st30" points="32.28,199.8 79.1,226.83 173.55,171.94 221.07,199.38 267.59,172.35 		"/>
		<polyline class="st30" points="173.68,113.71 173.67,127.24 173.55,171.94 173.5,178.92 		"/>
		<polyline class="st30" points="221.21,141.15 221.2,154.68 221.07,199.38 221.03,206.36 		"/>
		<polyline class="st30" points="267.72,127.65 221.2,154.68 173.67,127.24 79.23,182.12 32.41,155.09 		"/>
		<line class="st30" x1="79.32" y1="72.76" x2="120.86" y2="96.74"/>
	</g>
</g>
</svg>
