<?xml version="1.0" encoding="utf-8"?>
<!-- Generator: Adobe Illustrator 25.2.3, SVG Export Plug-In . SVG Version: 6.00 Build 0)  -->
<svg version="1.1" xmlns="http://www.w3.org/2000/svg" xmlns:xlink="http://www.w3.org/1999/xlink" x="0px" y="0px"
	 viewBox="0 0 300 300" style="enable-background:new 0 0 300 300;" xml:space="preserve">
<style type="text/css">
	.st0{display:none;}
	.st1{display:inline;opacity:0.15;}
	.st2{enable-background:new    ;}
	.st3{fill:#392CFF;stroke:#6548FF;stroke-miterlimit:10;}
	.st4{fill:#6548FF;stroke:#6548FF;stroke-miterlimit:10;}
	.st5{fill:#3D4BFF;stroke:#6548FF;stroke-miterlimit:10;}
	.st6{fill:#4915FF;stroke:#6548FF;stroke-miterlimit:10;}
	.st7{display:inline;fill:none;stroke:#6548FF;stroke-linecap:round;stroke-linejoin:round;stroke-miterlimit:10;}
	.st8{display:inline;fill:none;stroke:#6548FF;stroke-width:0.5;stroke-linecap:round;stroke-linejoin:round;stroke-miterlimit:10;}
	.st9{display:inline;}
	.st10{opacity:0.149;fill:#4915FF;}
	.st11{opacity:0.149;fill:#3D4BFF;}
	.st12{opacity:0.149;fill:#6548FF;}
	.st13{opacity:0.149;fill:#392CFF;}
	.st14{fill:none;stroke:#6548FF;stroke-linecap:round;stroke-linejoin:round;stroke-miterlimit:10;}
	.st15{fill:none;stroke:#6548FF;stroke-width:0.5;stroke-linecap:round;stroke-linejoin:round;stroke-miterlimit:10;}
	.st16{opacity:0.15;}
	.st17{fill:#3D4BFF;}
	.st18{fill:#4915FF;}
	.st19{fill:#6548FF;}
	.st20{fill:#392CFF;}
	.st21{fill:#474747;stroke:#656565;stroke-miterlimit:10;}
	.st22{fill:#656565;stroke:#656565;stroke-miterlimit:10;}
	.st23{fill:#5B5B5B;stroke:#656565;stroke-miterlimit:10;}
	.st24{fill:#3E3E3E;stroke:#656565;stroke-miterlimit:10;}
	.st25{fill:none;stroke:#656565;stroke-linecap:round;stroke-linejoin:round;stroke-miterlimit:10;}
	.st26{fill:none;stroke:#656565;stroke-width:0.5;stroke-linecap:round;stroke-linejoin:round;stroke-miterlimit:10;}
	.st27{opacity:0.149;fill:#3E3E3E;}
	.st28{opacity:0.149;fill:#5B5B5B;}
	.st29{opacity:0.149;fill:#656565;}
	.st30{opacity:0.149;fill:#474747;}
	.st31{fill:#5B5B5B;}
	.st32{fill:#3E3E3E;}
	.st33{fill:#656565;}
	.st34{fill:#474747;}
</style>
<g id="레이어_1" class="st0">
	<g class="st9">
		<g class="st16">
			<g>
				<g class="st2">
					<g>
						<polygon class="st17" points="104.98,160.27 109.42,171.21 83.61,116.08 78.73,104.19 						"/>
					</g>
					<g>
						<polygon class="st17" points="105.11,115.56 104.98,160.27 78.73,104.19 78.86,59.48 						"/>
					</g>
					<g>
						<polygon class="st17" points="109.6,106 105.11,115.56 78.86,59.48 83.8,50.87 						"/>
					</g>
					<g>
						<polygon class="st17" points="265.58,165.39 260.66,177.28 245.83,209.74 248.71,202.32 						"/>
					</g>
					<g>
						<polygon class="st17" points="248.71,202.32 245.83,209.74 150.57,194.97 151.81,187.3 						"/>
					</g>
					<g>
						<polygon class="st18" points="248.83,157.61 248.71,202.32 151.81,187.3 151.94,142.59 						"/>
					</g>
					<g>
						<polygon class="st18" points="265.71,120.69 265.58,165.39 248.71,202.32 248.83,157.61 						"/>
					</g>
					<g>
						<polygon class="st19" points="246.02,144.52 248.83,157.61 151.94,142.59 150.76,129.75 						"/>
					</g>
					<g>
						<polygon class="st19" points="260.84,112.07 265.71,120.69 248.83,157.61 246.02,144.52 						"/>
					</g>
					<g>
						<polygon class="st18" points="151.81,187.3 150.57,194.97 81.07,235.36 81.12,228.38 						"/>
					</g>
					<g>
						<polygon class="st17" points="81.12,228.38 81.07,235.36 39.92,211.6 34.29,201.34 						"/>
					</g>
					<g>
						<polygon class="st19" points="151.94,142.59 151.81,187.3 81.12,228.38 81.25,183.67 						"/>
					</g>
					<g>
						<polygon class="st17" points="81.25,183.67 81.12,228.38 34.29,201.34 34.42,156.64 						"/>
					</g>
					<g>
						<polygon class="st19" points="260.84,112.07 246.02,144.52 150.76,129.75 81.26,170.14 40.11,146.38 109.6,106 83.8,50.87 
							139.77,42.17 165.54,97.33 						"/>
					</g>
					<g>
						<polygon class="st17" points="81.26,170.14 81.25,183.67 34.42,156.64 40.11,146.38 						"/>
					</g>
					<g>
						<polygon class="st20" points="150.76,129.75 151.94,142.59 81.25,183.67 81.26,170.14 						"/>
					</g>
				</g>
			</g>
		</g>
		<polygon class="st14" points="260.84,112.07 265.71,120.69 265.58,165.39 245.83,209.74 150.57,194.97 81.07,235.36 39.92,211.6 
			34.29,201.34 34.42,156.64 40.11,146.38 85.46,120.03 78.73,104.19 78.86,59.48 83.8,50.87 139.77,42.17 165.54,97.33 		"/>
		<polyline class="st15" points="83.8,50.87 109.6,106 85.46,120.03 		"/>
		<line class="st15" x1="78.86" y1="59.48" x2="102.45" y2="109.87"/>
		<polyline class="st15" points="40.11,146.38 81.26,170.14 150.76,129.75 246.02,144.52 260.84,112.07 		"/>
		<polyline class="st15" points="265.71,120.69 248.83,157.61 151.94,142.59 81.25,183.67 34.42,156.64 		"/>
		<polyline class="st15" points="81.26,170.14 81.25,183.67 81.12,228.38 81.07,235.36 		"/>
		<polyline class="st15" points="150.76,129.75 151.94,142.59 151.81,187.3 150.57,194.97 		"/>
		<polyline class="st15" points="34.29,201.34 81.12,228.38 151.81,187.3 248.71,202.32 248.83,157.61 246.02,144.52 		"/>
	</g>
</g>
<g id="레이어_2">
	<g>
		<g class="st16">
			<g>
				<g class="st2">
					<g>
						<polygon class="st31" points="104.98,160.27 109.42,171.21 83.61,116.08 78.73,104.19 						"/>
					</g>
					<g>
						<polygon class="st31" points="105.11,115.56 104.98,160.27 78.73,104.19 78.86,59.48 						"/>
					</g>
					<g>
						<polygon class="st31" points="109.6,106 105.11,115.56 78.86,59.48 83.8,50.87 						"/>
					</g>
					<g>
						<polygon class="st31" points="265.58,165.39 260.66,177.28 245.83,209.74 248.71,202.32 						"/>
					</g>
					<g>
						<polygon class="st31" points="248.71,202.32 245.83,209.74 150.57,194.97 151.81,187.3 						"/>
					</g>
					<g>
						<polygon class="st32" points="248.83,157.61 248.71,202.32 151.81,187.3 151.94,142.59 						"/>
					</g>
					<g>
						<polygon class="st32" points="265.71,120.69 265.58,165.39 248.71,202.32 248.83,157.61 						"/>
					</g>
					<g>
						<polygon class="st33" points="246.02,144.52 248.83,157.61 151.94,142.59 150.76,129.75 						"/>
					</g>
					<g>
						<polygon class="st33" points="260.84,112.07 265.71,120.69 248.83,157.61 246.02,144.52 						"/>
					</g>
					<g>
						<polygon class="st32" points="151.81,187.3 150.57,194.97 81.07,235.36 81.12,228.38 						"/>
					</g>
					<g>
						<polygon class="st31" points="81.12,228.38 81.07,235.36 39.92,211.6 34.29,201.34 						"/>
					</g>
					<g>
						<polygon class="st33" points="151.94,142.59 151.81,187.3 81.12,228.38 81.25,183.67 						"/>
					</g>
					<g>
						<polygon class="st31" points="81.25,183.67 81.12,228.38 34.29,201.34 34.42,156.64 						"/>
					</g>
					<g>
						<polygon class="st33" points="260.84,112.07 246.02,144.52 150.76,129.75 81.26,170.14 40.11,146.38 109.6,106 83.8,50.87 
							139.77,42.17 165.54,97.33 						"/>
					</g>
					<g>
						<polygon class="st31" points="81.26,170.14 81.25,183.67 34.42,156.64 40.11,146.38 						"/>
					</g>
					<g>
						<polygon class="st34" points="150.76,129.75 151.94,142.59 81.25,183.67 81.26,170.14 						"/>
					</g>
				</g>
			</g>
		</g>
		<polygon class="st25" points="260.84,112.07 265.71,120.69 265.58,165.39 245.83,209.74 150.57,194.97 81.07,235.36 39.92,211.6 
			34.29,201.34 34.42,156.64 40.11,146.38 85.46,120.03 78.73,104.19 78.86,59.48 83.8,50.87 139.77,42.17 165.54,97.33 		"/>
		<polyline class="st26" points="83.8,50.87 109.6,106 85.46,120.03 		"/>
		<line class="st26" x1="78.86" y1="59.48" x2="102.45" y2="109.87"/>
		<polyline class="st26" points="40.11,146.38 81.26,170.14 150.76,129.75 246.02,144.52 260.84,112.07 		"/>
		<polyline class="st26" points="265.71,120.69 248.83,157.61 151.94,142.59 81.25,183.67 34.42,156.64 		"/>
		<polyline class="st26" points="81.26,170.14 81.25,183.67 81.12,228.38 81.07,235.36 		"/>
		<polyline class="st26" points="150.76,129.75 151.94,142.59 151.81,187.3 150.57,194.97 		"/>
		<polyline class="st26" points="34.29,201.34 81.12,228.38 151.81,187.3 248.71,202.32 248.83,157.61 246.02,144.52 		"/>
	</g>
</g>
</svg>
