<?xml version="1.0" encoding="utf-8"?>
<!-- Generator: Adobe Illustrator 24.2.3, SVG Export Plug-In . SVG Version: 6.00 Build 0)  -->
<svg version="1.1" id="레이어_1" xmlns="http://www.w3.org/2000/svg" xmlns:xlink="http://www.w3.org/1999/xlink" x="0px"
	 y="0px" viewBox="0 0 36 36" style="enable-background:new 0 0 36 36;" xml:space="preserve">
<style type="text/css">
	.st0{opacity:0.15;fill-rule:evenodd;clip-rule:evenodd;fill:#00005A;}
	.st1{fill:#696B8C;}
</style>
<path class="st0" d="M30.3,36H5.7C2.5,36,0,33.5,0,30.3V5.7C0,2.5,2.5,0,5.7,0h24.7C33.5,0,36,2.5,36,5.7v24.7
	C36,33.5,33.5,36,30.3,36z"/>
<g>
	<path class="st1" d="M14,18.5c-1.5,0.3-2.8,0.4-5.1,0.4H8v-5.8h5.3v1.1h-4v3.6c2,0,3.2-0.1,4.6-0.4L14,18.5z M9.2,19.9h7.9v4.1
		h-1.3V21H9.2V19.9z M17.1,12.3v7h-1.3v-3h-3.1v-1.1h3.1v-3H17.1z"/>
	<path class="st1" d="M24,19.1v1c2.1,0.1,3.4,0.8,3.4,2c0,1.3-1.5,2-4,2c-2.5,0-4-0.7-4-2c0-1.2,1.3-1.8,3.4-2v-1H18V18h10.6v1.1H24
		z M18.5,16.5c2.4-0.2,3.8-1,4-2h-3.5v-1.1h3.6v-1.1H24v1.1h3.6v1.1h-3.5c0.2,1,1.6,1.9,4,2l-0.4,1c-2-0.2-3.6-0.8-4.4-1.9
		c-0.7,1-2.3,1.7-4.4,1.9L18.5,16.5z M23.3,21.1c-1.7,0-2.7,0.3-2.7,1s0.9,1,2.7,1c1.7,0,2.7-0.3,2.7-1S25,21.1,23.3,21.1z"/>
</g>
</svg>
