<?xml version="1.0" encoding="utf-8"?>
<!-- Generator: Adobe Illustrator 24.2.3, SVG Export Plug-In . SVG Version: 6.00 Build 0)  -->
<svg version="1.1" id="레이어_1" xmlns="http://www.w3.org/2000/svg" xmlns:xlink="http://www.w3.org/1999/xlink" x="0px"
	 y="0px" viewBox="0 0 36 36" style="enable-background:new 0 0 36 36;" xml:space="preserve">
<style type="text/css">
	.st0{opacity:0.15;fill-rule:evenodd;clip-rule:evenodd;fill:#00005A;}
	.st1{fill:#696B8C;}
</style>
<path class="st0" d="M30.3,36H5.7C2.5,36,0,33.5,0,30.3V5.7C0,2.5,2.5,0,5.7,0h24.7C33.5,0,36,2.5,36,5.7v24.7
	C36,33.5,33.5,36,30.3,36z"/>
<g>
	<path class="st1" d="M14.6,19.2c-2.4,0.5-5.1,0.5-7.1,0.5l-0.2-1.1c0.8,0,1.8,0,2.9,0v-1.1C8.9,17.3,8,16.4,8,15.2
		c0-1.4,1.2-2.3,2.9-2.3s2.9,0.9,2.9,2.3c0,1.2-0.9,2.1-2.2,2.3v1c1-0.1,2-0.1,3-0.3L14.6,19.2z M10.3,22.8h6.7v1.1H9v-3.3h1.3V22.8
		z M10.9,16.5c1,0,1.7-0.5,1.7-1.3c0-0.8-0.7-1.3-1.7-1.3c-1,0-1.7,0.5-1.7,1.3C9.2,16,9.9,16.5,10.9,16.5z M18.2,16.2v1.1h-1.6v4
		h-1.3v-9h1.3v3.8H18.2z"/>
	<path class="st1" d="M28.6,20H24v4.1h-1.3V20H18v-1.1h10.6L28.6,20z M18.6,17c2.2-0.3,3.9-1.6,4-3H19V13h8.6v1.1h-3.5
		c0.1,1.4,1.7,2.7,4,3l-0.5,1.1c-1.9-0.3-3.5-1.2-4.3-2.5c-0.7,1.3-2.3,2.3-4.2,2.5L18.6,17z"/>
</g>
</svg>
